<svg width="24" height="24" viewBox="0 0 24 24" fill="none" xmlns="http://www.w3.org/2000/svg">
<rect width="24" height="24" rx="12" fill="#F1F5F7"/>
<path d="M11.4404 14.1973C11.4495 13.6549 11.5111 13.2266 11.625 12.9121C11.7389 12.5977 11.9714 12.249 12.3223 11.8662L13.2178 10.9434C13.6006 10.5104 13.792 10.0456 13.792 9.54883C13.792 9.07031 13.6667 8.69661 13.416 8.42773C13.1654 8.1543 12.8008 8.01758 12.3223 8.01758C11.8574 8.01758 11.4837 8.14062 11.2012 8.38672C10.9186 8.63281 10.7773 8.96322 10.7773 9.37793H9.5127C9.52181 8.63965 9.78385 8.04492 10.2988 7.59375C10.8184 7.13802 11.4928 6.91016 12.3223 6.91016C13.1836 6.91016 13.8535 7.14258 14.332 7.60742C14.8151 8.06771 15.0566 8.70117 15.0566 9.50781C15.0566 10.3053 14.6875 11.0915 13.9492 11.8662L13.2041 12.6045C12.8714 12.9736 12.7051 13.5046 12.7051 14.1973H11.4404ZM11.3857 16.3643C11.3857 16.1592 11.4473 15.9883 11.5703 15.8516C11.6979 15.7103 11.8848 15.6396 12.1309 15.6396C12.377 15.6396 12.5638 15.7103 12.6914 15.8516C12.819 15.9883 12.8828 16.1592 12.8828 16.3643C12.8828 16.5693 12.819 16.7402 12.6914 16.877C12.5638 17.0091 12.377 17.0752 12.1309 17.0752C11.8848 17.0752 11.6979 17.0091 11.5703 16.877C11.4473 16.7402 11.3857 16.5693 11.3857 16.3643Z" fill="#1272AE"/>
</svg>
