<svg width="340" height="111" viewBox="0 0 340 111" fill="none" xmlns="http://www.w3.org/2000/svg">
<rect x="0.5" y="0.5" width="339" height="110" rx="2.5" fill="white" stroke="#B4D6EC"/>
<path d="M65.854 17.21C65.854 17.546 65.784 17.8867 65.644 18.232C65.5133 18.5773 65.3173 18.8853 65.056 19.156C64.804 19.4267 64.4867 19.6507 64.104 19.828C63.7307 19.996 63.306 20.08 62.83 20.08H60.296V24H59.064V14.256H62.634C63.0353 14.256 63.4273 14.312 63.81 14.424C64.202 14.536 64.5473 14.7133 64.846 14.956C65.1447 15.1893 65.3873 15.4927 65.574 15.866C65.7607 16.2393 65.854 16.6873 65.854 17.21ZM64.566 17.168C64.566 16.5707 64.384 16.1273 64.02 15.838C63.6653 15.5393 63.2127 15.39 62.662 15.39H60.296V18.946H62.718C63.026 18.946 63.2967 18.8947 63.53 18.792C63.7633 18.68 63.9547 18.54 64.104 18.372C64.2627 18.204 64.3793 18.0173 64.454 17.812C64.5287 17.5973 64.566 17.3827 64.566 17.168ZM69.2597 16.986C69.6331 16.986 69.9877 17.0233 70.3237 17.098C70.6691 17.1633 70.9677 17.28 71.2197 17.448C71.4811 17.616 71.6864 17.8447 71.8357 18.134C71.9851 18.4233 72.0597 18.7873 72.0597 19.226V24H70.8977V23.398L70.8837 23.384C70.7531 23.5893 70.5197 23.7573 70.1837 23.888C69.8477 24.0187 69.4417 24.084 68.9657 24.084C68.1724 24.084 67.5611 23.8927 67.1317 23.51C66.7117 23.118 66.5017 22.6233 66.5017 22.026C66.5017 21.7553 66.5484 21.4987 66.6417 21.256C66.7351 21.004 66.8704 20.7847 67.0477 20.598C67.2344 20.4113 67.4631 20.262 67.7337 20.15C68.0137 20.038 68.3404 19.982 68.7137 19.982H70.8977V19.198C70.8977 18.8153 70.7717 18.5307 70.5197 18.344C70.2677 18.1573 69.8617 18.064 69.3017 18.064C68.8631 18.064 68.5177 18.12 68.2657 18.232C68.0137 18.3347 67.8084 18.4793 67.6497 18.666L66.9217 17.896C67.1831 17.5973 67.5191 17.3733 67.9297 17.224C68.3404 17.0653 68.7837 16.986 69.2597 16.986ZM67.5937 21.956C67.5937 22.2827 67.7151 22.544 67.9577 22.74C68.2097 22.936 68.5924 23.034 69.1057 23.034C69.3297 23.034 69.5491 23.0153 69.7637 22.978C69.9784 22.9407 70.1697 22.8753 70.3377 22.782C70.5057 22.6793 70.6411 22.5487 70.7437 22.39C70.8464 22.222 70.8977 22.0073 70.8977 21.746V20.934H68.9937C68.5457 20.934 68.2004 21.0227 67.9577 21.2C67.7151 21.3773 67.5937 21.6293 67.5937 21.956ZM78.5896 23.104C78.291 23.4027 77.955 23.6407 77.5816 23.818C77.2083 23.9953 76.7836 24.084 76.3076 24.084C75.9063 24.084 75.5143 24.0187 75.1316 23.888C74.7583 23.7573 74.4223 23.552 74.1236 23.272C73.8343 22.9827 73.601 22.614 73.4236 22.166C73.2463 21.718 73.1576 21.1767 73.1576 20.542C73.1576 19.898 73.2463 19.352 73.4236 18.904C73.601 18.456 73.8343 18.092 74.1236 17.812C74.4223 17.5227 74.7583 17.3127 75.1316 17.182C75.5143 17.0513 75.9063 16.986 76.3076 16.986C76.7743 16.986 77.1943 17.0747 77.5676 17.252C77.941 17.4293 78.277 17.6627 78.5756 17.952L77.8336 18.792C77.647 18.5773 77.423 18.4093 77.1616 18.288C76.9003 18.1573 76.6343 18.092 76.3636 18.092C75.7103 18.092 75.2016 18.2927 74.8376 18.694C74.483 19.0953 74.3056 19.7113 74.3056 20.542C74.3056 21.3633 74.483 21.9793 74.8376 22.39C75.2016 22.7913 75.7103 22.992 76.3636 22.992C76.6623 22.992 76.9376 22.922 77.1896 22.782C77.451 22.6327 77.6656 22.4647 77.8336 22.278L78.5896 23.104ZM80.4329 17.042V19.114C80.4329 19.6367 80.5496 19.996 80.7829 20.192C81.0256 20.3787 81.3569 20.472 81.7769 20.472C81.8703 20.472 81.9916 20.4627 82.1409 20.444C82.2996 20.4253 82.4629 20.3927 82.6309 20.346C82.7989 20.2993 82.9716 20.2433 83.1489 20.178C83.3263 20.1033 83.4849 20.0147 83.6249 19.912V17.042H84.7729V24H83.6249V20.99H83.5829C83.2843 21.186 82.9529 21.3353 82.5889 21.438C82.2343 21.5313 81.9076 21.578 81.6089 21.578C81.2636 21.578 80.9463 21.536 80.6569 21.452C80.3769 21.3587 80.1343 21.2187 79.9289 21.032C79.7236 20.836 79.5649 20.5887 79.4529 20.29C79.3409 19.982 79.2849 19.6133 79.2849 19.184V17.042H80.4329ZM87.3125 20.92V21.032C87.3125 21.3027 87.3498 21.5593 87.4245 21.802C87.4992 22.0447 87.6112 22.2593 87.7605 22.446C87.9098 22.6233 88.0965 22.7633 88.3205 22.866C88.5445 22.9687 88.8058 23.02 89.1045 23.02C89.3285 23.02 89.5852 22.964 89.8745 22.852C90.1732 22.74 90.4392 22.5767 90.6725 22.362L91.4145 23.188C91.0878 23.5053 90.7192 23.734 90.3085 23.874C89.8978 24.014 89.4778 24.084 89.0485 24.084C88.6938 24.084 88.3392 24.0373 87.9845 23.944C87.6392 23.8413 87.3265 23.6593 87.0465 23.398C86.7665 23.1367 86.5378 22.7773 86.3605 22.32C86.1925 21.8627 86.1085 21.2747 86.1085 20.556C86.1085 19.8747 86.1972 19.3053 86.3745 18.848C86.5518 18.3813 86.7805 18.0127 87.0605 17.742C87.3405 17.462 87.6532 17.266 87.9985 17.154C88.3438 17.0327 88.6798 16.972 89.0065 16.972C89.3892 16.972 89.7485 17.042 90.0845 17.182C90.4205 17.3127 90.7145 17.5087 90.9665 17.77C91.2185 18.0313 91.4145 18.3533 91.5545 18.736C91.7038 19.1093 91.7785 19.5387 91.7785 20.024V20.92H87.3125ZM88.9505 18.064C88.4745 18.064 88.0918 18.2273 87.8025 18.554C87.5132 18.8807 87.3498 19.3473 87.3125 19.954H90.5745C90.5465 19.3287 90.3878 18.8573 90.0985 18.54C89.8092 18.2227 89.4265 18.064 88.9505 18.064ZM95.6487 18.064V24H94.4867V18.064H92.3167V17.07H97.8327V18.064H95.6487ZM104.966 24V17.07H106.128V24H104.966ZM102.964 21.858C102.964 21.5967 102.866 21.3587 102.67 21.144C102.474 20.9293 102.152 20.822 101.704 20.822L99.7855 20.808V22.936H101.704C102.105 22.936 102.413 22.8473 102.628 22.67C102.852 22.4833 102.964 22.2127 102.964 21.858ZM99.7995 19.758H101.746C102.138 19.758 102.483 19.814 102.782 19.926C103.09 20.0287 103.342 20.1733 103.538 20.36C103.743 20.5467 103.897 20.7707 104 21.032C104.102 21.284 104.154 21.5593 104.154 21.858C104.154 22.502 103.944 23.02 103.524 23.412C103.113 23.804 102.516 24 101.732 24H98.6375V17.056H99.7995V19.758ZM110.804 24V17.056H111.966V20.066H113.17C113.3 20.066 113.431 20.0567 113.562 20.038C113.692 20.0193 113.814 19.9773 113.926 19.912C114.047 19.8373 114.154 19.7347 114.248 19.604C114.35 19.464 114.434 19.282 114.5 19.058L115.116 17.056H116.264L115.634 19.072C115.531 19.408 115.4 19.6927 115.242 19.926C115.083 20.15 114.873 20.2993 114.612 20.374C114.938 20.4487 115.176 20.612 115.326 20.864C115.475 21.1067 115.601 21.4007 115.704 21.746L116.39 24H115.214L114.668 22.082C114.518 21.634 114.336 21.3447 114.122 21.214C113.907 21.074 113.641 21.004 113.324 21.004H111.966V24H110.804ZM119.914 16.986C120.287 16.986 120.642 17.0233 120.978 17.098C121.323 17.1633 121.622 17.28 121.874 17.448C122.135 17.616 122.341 17.8447 122.49 18.134C122.639 18.4233 122.714 18.7873 122.714 19.226V24H121.552V23.398L121.538 23.384C121.407 23.5893 121.174 23.7573 120.838 23.888C120.502 24.0187 120.096 24.084 119.62 24.084C118.827 24.084 118.215 23.8927 117.786 23.51C117.366 23.118 117.156 22.6233 117.156 22.026C117.156 21.7553 117.203 21.4987 117.296 21.256C117.389 21.004 117.525 20.7847 117.702 20.598C117.889 20.4113 118.117 20.262 118.388 20.15C118.668 20.038 118.995 19.982 119.368 19.982H121.552V19.198C121.552 18.8153 121.426 18.5307 121.174 18.344C120.922 18.1573 120.516 18.064 119.956 18.064C119.517 18.064 119.172 18.12 118.92 18.232C118.668 18.3347 118.463 18.4793 118.304 18.666L117.576 17.896C117.837 17.5973 118.173 17.3733 118.584 17.224C118.995 17.0653 119.438 16.986 119.914 16.986ZM118.248 21.956C118.248 22.2827 118.369 22.544 118.612 22.74C118.864 22.936 119.247 23.034 119.76 23.034C119.984 23.034 120.203 23.0153 120.418 22.978C120.633 22.9407 120.824 22.8753 120.992 22.782C121.16 22.6793 121.295 22.5487 121.398 22.39C121.501 22.222 121.552 22.0073 121.552 21.746V20.934H119.648C119.2 20.934 118.855 21.0227 118.612 21.2C118.369 21.3773 118.248 21.6293 118.248 21.956ZM126.108 18.064V20.29C126.108 21.0087 126.052 21.606 125.94 22.082C125.837 22.5487 125.688 22.9267 125.492 23.216C125.296 23.5053 125.053 23.7247 124.764 23.874C124.484 24.014 124.162 24.1167 123.798 24.182L123.49 23.216C123.742 23.1227 123.961 23.0293 124.148 22.936C124.344 22.8427 124.503 22.698 124.624 22.502C124.745 22.2967 124.834 22.0167 124.89 21.662C124.955 21.3073 124.988 20.8267 124.988 20.22V17.056H129.804V24H128.628V18.064H126.108ZM135.969 21.858C135.969 21.5967 135.871 21.3587 135.675 21.144C135.479 20.9293 135.157 20.822 134.709 20.822L132.791 20.808V22.936H134.709C135.11 22.936 135.418 22.8473 135.633 22.67C135.857 22.4833 135.969 22.2127 135.969 21.858ZM132.805 19.758H134.751C135.143 19.758 135.488 19.814 135.787 19.926C136.095 20.0287 136.347 20.1733 136.543 20.36C136.748 20.5467 136.902 20.7707 137.005 21.032C137.108 21.284 137.159 21.5593 137.159 21.858C137.159 22.502 136.949 23.02 136.529 23.412C136.118 23.804 135.521 24 134.737 24H131.629L131.643 17.056H132.805V19.758ZM137.915 24V17.056H139.077V20.066H140.281C140.412 20.066 140.542 20.0567 140.673 20.038C140.804 20.0193 140.925 19.9773 141.037 19.912C141.158 19.8373 141.266 19.7347 141.359 19.604C141.462 19.464 141.546 19.282 141.611 19.058L142.227 17.056H143.375L142.745 19.072C142.642 19.408 142.512 19.6927 142.353 19.926C142.194 20.15 141.984 20.2993 141.723 20.374C142.05 20.4487 142.288 20.612 142.437 20.864C142.586 21.1067 142.712 21.4007 142.815 21.746L143.501 24H142.325L141.779 22.082C141.63 21.634 141.448 21.3447 141.233 21.214C141.018 21.074 140.752 21.004 140.435 21.004H139.077V24H137.915ZM146.927 25.47C146.825 25.75 146.708 25.9787 146.577 26.156C146.447 26.3333 146.302 26.4687 146.143 26.562C145.985 26.6553 145.817 26.716 145.639 26.744C145.462 26.7813 145.28 26.8 145.093 26.8H144.505V25.792H145.079C145.266 25.792 145.429 25.736 145.569 25.624C145.719 25.512 145.845 25.3067 145.947 25.008L146.325 23.86L143.777 17.056H145.051L146.157 20.206L146.871 22.39H146.913L147.627 20.22L148.705 17.056H149.909L146.927 25.47ZM152.604 18.064V20.29C152.604 21.0087 152.548 21.606 152.436 22.082C152.333 22.5487 152.184 22.9267 151.988 23.216C151.792 23.5053 151.549 23.7247 151.26 23.874C150.98 24.014 150.658 24.1167 150.294 24.182L149.986 23.216C150.238 23.1227 150.457 23.0293 150.644 22.936C150.84 22.8427 150.999 22.698 151.12 22.502C151.241 22.2967 151.33 22.0167 151.386 21.662C151.451 21.3073 151.484 20.8267 151.484 20.22V17.056H156.3V24H155.124V18.064H152.604ZM157.929 19.212C157.929 18.9133 157.98 18.6333 158.083 18.372C158.186 18.1107 158.33 17.8867 158.517 17.7C158.704 17.504 158.928 17.35 159.189 17.238C159.46 17.126 159.758 17.07 160.085 17.07H163.389V24H162.241V21.13H160.729C160.58 21.1393 160.43 21.1627 160.281 21.2C160.132 21.2373 159.987 21.298 159.847 21.382C159.716 21.466 159.6 21.578 159.497 21.718C159.394 21.858 159.32 22.04 159.273 22.264L158.895 24H157.691L158.139 22.124C158.204 21.844 158.307 21.5967 158.447 21.382C158.596 21.158 158.848 20.9853 159.203 20.864C158.727 20.7613 158.396 20.5513 158.209 20.234C158.022 19.9167 157.929 19.576 157.929 19.212ZM159.077 19.184C159.077 19.5387 159.208 19.8 159.469 19.968C159.73 20.1267 160.057 20.206 160.449 20.206H162.241V18.078H160.267C160.118 18.078 159.968 18.1013 159.819 18.148C159.679 18.1947 159.553 18.2647 159.441 18.358C159.329 18.4513 159.24 18.568 159.175 18.708C159.11 18.848 159.077 19.0067 159.077 19.184ZM167.522 18.064V24H166.36V18.064H164.19V17.07H169.706V18.064H167.522ZM173.409 17C173.913 17 174.361 17.1027 174.753 17.308C175.145 17.504 175.462 17.7887 175.705 18.162C175.863 18.414 175.98 18.722 176.055 19.086C176.139 19.4407 176.181 19.842 176.181 20.29C176.181 20.8873 176.148 21.3913 176.083 21.802C176.017 22.2033 175.905 22.5393 175.747 22.81C175.504 23.2207 175.163 23.538 174.725 23.762C174.295 23.9767 173.805 24.084 173.255 24.084C172.751 24.084 172.303 24 171.911 23.832C171.519 23.6547 171.201 23.3887 170.959 23.034C170.772 22.7447 170.637 22.3993 170.553 21.998C170.478 21.5967 170.441 21.116 170.441 20.556C170.441 20.164 170.464 19.8047 170.511 19.478C170.567 19.142 170.66 18.8387 170.791 18.568C171.024 18.064 171.365 17.6767 171.813 17.406C172.27 17.1353 172.802 17 173.409 17ZM173.367 18.036C173.021 18.036 172.713 18.1247 172.443 18.302C172.181 18.47 171.981 18.708 171.841 19.016C171.738 19.2307 171.673 19.4687 171.645 19.73C171.617 19.982 171.598 20.262 171.589 20.57C171.589 20.878 171.598 21.158 171.617 21.41C171.645 21.6527 171.705 21.8767 171.799 22.082C171.929 22.3807 172.121 22.614 172.373 22.782C172.625 22.95 172.923 23.034 173.269 23.034C173.642 23.034 173.973 22.936 174.263 22.74C174.561 22.544 174.776 22.2313 174.907 21.802C174.953 21.634 174.981 21.4427 174.991 21.228C175.009 21.004 175.019 20.7053 175.019 20.332C175.019 20.0613 175.005 19.8233 174.977 19.618C174.958 19.4033 174.911 19.212 174.837 19.044C174.706 18.6987 174.51 18.4467 174.249 18.288C173.987 18.12 173.693 18.036 173.367 18.036ZM178.85 17.056V17.826L178.892 17.84C179.163 17.532 179.457 17.3127 179.774 17.182C180.101 17.0513 180.437 16.986 180.782 16.986C181.277 16.986 181.683 17.0887 182 17.294C182.327 17.49 182.583 17.756 182.77 18.092C182.957 18.4187 183.083 18.792 183.148 19.212C183.223 19.6227 183.26 20.0427 183.26 20.472C183.26 20.92 183.223 21.3633 183.148 21.802C183.073 22.2313 182.933 22.614 182.728 22.95C182.523 23.286 182.243 23.5613 181.888 23.776C181.543 23.9813 181.099 24.084 180.558 24.084C180.213 24.084 179.895 24.028 179.606 23.916C179.326 23.804 179.083 23.6267 178.878 23.384H178.85V26.772H177.702V17.056H178.85ZM178.85 20.542C178.85 20.8033 178.864 21.0787 178.892 21.368C178.929 21.648 178.999 21.9047 179.102 22.138C179.214 22.3713 179.373 22.5627 179.578 22.712C179.783 22.8613 180.063 22.936 180.418 22.936C180.782 22.936 181.071 22.866 181.286 22.726C181.501 22.5767 181.664 22.39 181.776 22.166C181.888 21.9327 181.963 21.676 182 21.396C182.037 21.1067 182.056 20.822 182.056 20.542C182.056 20.2713 182.042 19.996 182.014 19.716C181.986 19.4267 181.921 19.1653 181.818 18.932C181.715 18.6893 181.557 18.4933 181.342 18.344C181.137 18.1947 180.852 18.12 180.488 18.12C180.133 18.12 179.849 18.1993 179.634 18.358C179.419 18.5167 179.251 18.7173 179.13 18.96C179.018 19.1933 178.943 19.4547 178.906 19.744C178.869 20.024 178.85 20.29 178.85 20.542ZM187.152 16.986C187.526 16.986 187.88 17.0233 188.216 17.098C188.562 17.1633 188.86 17.28 189.112 17.448C189.374 17.616 189.579 17.8447 189.728 18.134C189.878 18.4233 189.952 18.7873 189.952 19.226V24H188.79V23.398L188.776 23.384C188.646 23.5893 188.412 23.7573 188.076 23.888C187.74 24.0187 187.334 24.084 186.858 24.084C186.065 24.084 185.454 23.8927 185.024 23.51C184.604 23.118 184.394 22.6233 184.394 22.026C184.394 21.7553 184.441 21.4987 184.534 21.256C184.628 21.004 184.763 20.7847 184.94 20.598C185.127 20.4113 185.356 20.262 185.626 20.15C185.906 20.038 186.233 19.982 186.606 19.982H188.79V19.198C188.79 18.8153 188.664 18.5307 188.412 18.344C188.16 18.1573 187.754 18.064 187.194 18.064C186.756 18.064 186.41 18.12 186.158 18.232C185.906 18.3347 185.701 18.4793 185.542 18.666L184.814 17.896C185.076 17.5973 185.412 17.3733 185.822 17.224C186.233 17.0653 186.676 16.986 187.152 16.986ZM185.486 21.956C185.486 22.2827 185.608 22.544 185.85 22.74C186.102 22.936 186.485 23.034 186.998 23.034C187.222 23.034 187.442 23.0153 187.656 22.978C187.871 22.9407 188.062 22.8753 188.23 22.782C188.398 22.6793 188.534 22.5487 188.636 22.39C188.739 22.222 188.79 22.0073 188.79 21.746V20.934H186.886C186.438 20.934 186.093 21.0227 185.85 21.2C185.608 21.3773 185.486 21.6293 185.486 21.956ZM194.433 19.212C194.433 18.9133 194.484 18.6333 194.587 18.372C194.69 18.1107 194.834 17.8867 195.021 17.7C195.208 17.504 195.432 17.35 195.693 17.238C195.964 17.126 196.262 17.07 196.589 17.07H199.893V24H198.745V21.13H197.233C197.084 21.1393 196.934 21.1627 196.785 21.2C196.636 21.2373 196.491 21.298 196.351 21.382C196.22 21.466 196.104 21.578 196.001 21.718C195.898 21.858 195.824 22.04 195.777 22.264L195.399 24H194.195L194.643 22.124C194.708 21.844 194.811 21.5967 194.951 21.382C195.1 21.158 195.352 20.9853 195.707 20.864C195.231 20.7613 194.9 20.5513 194.713 20.234C194.526 19.9167 194.433 19.576 194.433 19.212ZM195.581 19.184C195.581 19.5387 195.712 19.8 195.973 19.968C196.234 20.1267 196.561 20.206 196.953 20.206H198.745V18.078H196.771C196.622 18.078 196.472 18.1013 196.323 18.148C196.183 18.1947 196.057 18.2647 195.945 18.358C195.833 18.4513 195.744 18.568 195.679 18.708C195.614 18.848 195.581 19.0067 195.581 19.184ZM207.008 21.956C207.008 22.2547 206.947 22.53 206.826 22.782C206.714 23.0247 206.555 23.2393 206.35 23.426C206.154 23.6033 205.92 23.7433 205.65 23.846C205.379 23.9487 205.094 24 204.796 24H201.492V17.056H204.488C204.88 17.056 205.22 17.1073 205.51 17.21C205.808 17.3033 206.056 17.4387 206.252 17.616C206.448 17.784 206.592 17.9847 206.686 18.218C206.788 18.4513 206.84 18.7033 206.84 18.974C206.84 19.2447 206.765 19.5107 206.616 19.772C206.476 20.0333 206.228 20.2433 205.874 20.402C206.284 20.5327 206.574 20.7427 206.742 21.032C206.919 21.3213 207.008 21.6293 207.008 21.956ZM202.654 20.906V22.936H204.53C204.978 22.936 205.309 22.838 205.524 22.642C205.748 22.446 205.86 22.2127 205.86 21.942C205.86 21.6713 205.748 21.4333 205.524 21.228C205.309 21.0133 204.978 20.906 204.53 20.906H202.654ZM202.654 18.064V19.996H204.362C204.847 19.996 205.188 19.9027 205.384 19.716C205.58 19.52 205.678 19.2867 205.678 19.016C205.678 18.7453 205.57 18.5213 205.356 18.344C205.141 18.1573 204.81 18.064 204.362 18.064H202.654ZM210.094 18.064V20.29C210.094 21.0087 210.038 21.606 209.926 22.082C209.824 22.5487 209.674 22.9267 209.478 23.216C209.282 23.5053 209.04 23.7247 208.75 23.874C208.47 24.014 208.148 24.1167 207.784 24.182L207.476 23.216C207.728 23.1227 207.948 23.0293 208.134 22.936C208.33 22.8427 208.489 22.698 208.61 22.502C208.732 22.2967 208.82 22.0167 208.876 21.662C208.942 21.3073 208.974 20.8267 208.974 20.22V17.056H213.79V24H212.614V18.064H210.094ZM215.419 19.212C215.419 18.9133 215.471 18.6333 215.573 18.372C215.676 18.1107 215.821 17.8867 216.007 17.7C216.194 17.504 216.418 17.35 216.679 17.238C216.95 17.126 217.249 17.07 217.575 17.07H220.879V24H219.731V21.13H218.219C218.07 21.1393 217.921 21.1627 217.771 21.2C217.622 21.2373 217.477 21.298 217.337 21.382C217.207 21.466 217.09 21.578 216.987 21.718C216.885 21.858 216.81 22.04 216.763 22.264L216.385 24H215.181L215.629 22.124C215.695 21.844 215.797 21.5967 215.937 21.382C216.087 21.158 216.339 20.9853 216.693 20.864C216.217 20.7613 215.886 20.5513 215.699 20.234C215.513 19.9167 215.419 19.576 215.419 19.212ZM216.567 19.184C216.567 19.5387 216.698 19.8 216.959 19.968C217.221 20.1267 217.547 20.206 217.939 20.206H219.731V18.078H217.757C217.608 18.078 217.459 18.1013 217.309 18.148C217.169 18.1947 217.043 18.2647 216.931 18.358C216.819 18.4513 216.731 18.568 216.665 18.708C216.6 18.848 216.567 19.0067 216.567 19.184ZM222.506 17.07H223.654V20.038H224.62C224.648 19.4687 224.751 18.9787 224.928 18.568C225.143 18.064 225.455 17.6767 225.866 17.406C226.286 17.1353 226.776 17 227.336 17C227.812 17 228.241 17.0887 228.624 17.266C229.016 17.434 229.324 17.7047 229.548 18.078C229.735 18.3767 229.861 18.7407 229.926 19.17C230.001 19.59 230.038 20.0613 230.038 20.584C230.038 21.0507 230.005 21.4707 229.94 21.844C229.884 22.2173 229.777 22.5393 229.618 22.81C229.375 23.258 229.044 23.5847 228.624 23.79C228.213 23.986 227.775 24.084 227.308 24.084C226.832 24.084 226.407 23.9953 226.034 23.818C225.661 23.6407 225.362 23.3793 225.138 23.034C224.998 22.8193 224.881 22.53 224.788 22.166C224.695 21.7927 224.639 21.3913 224.62 20.962H223.654V24H222.506V17.07ZM227.336 18.036C227.009 18.036 226.729 18.1247 226.496 18.302C226.272 18.47 226.095 18.708 225.964 19.016C225.908 19.1467 225.857 19.3613 225.81 19.66C225.773 19.9587 225.754 20.262 225.754 20.57C225.754 20.878 225.773 21.172 225.81 21.452C225.847 21.7227 225.899 21.9327 225.964 22.082C226.095 22.3807 226.272 22.614 226.496 22.782C226.729 22.95 227.009 23.034 227.336 23.034C227.681 23.034 227.98 22.9407 228.232 22.754C228.493 22.5673 228.68 22.2593 228.792 21.83C228.839 21.662 228.867 21.4753 228.876 21.27C228.885 21.0553 228.89 20.8173 228.89 20.556C228.89 20.2293 228.876 19.9353 228.848 19.674C228.829 19.4127 228.783 19.1887 228.708 19.002C228.577 18.6567 228.391 18.4093 228.148 18.26C227.915 18.1107 227.644 18.036 227.336 18.036ZM234.117 18.064V24H232.955V18.064H230.785V17.07H236.301V18.064H234.117ZM242.146 23.104C241.848 23.4027 241.512 23.6407 241.138 23.818C240.765 23.9953 240.34 24.084 239.864 24.084C239.463 24.084 239.071 24.0187 238.688 23.888C238.315 23.7573 237.979 23.552 237.68 23.272C237.391 22.9827 237.158 22.614 236.98 22.166C236.803 21.718 236.714 21.1767 236.714 20.542C236.714 19.898 236.803 19.352 236.98 18.904C237.158 18.456 237.391 18.092 237.68 17.812C237.979 17.5227 238.315 17.3127 238.688 17.182C239.071 17.0513 239.463 16.986 239.864 16.986C240.331 16.986 240.751 17.0747 241.124 17.252C241.498 17.4293 241.834 17.6627 242.132 17.952L241.39 18.792C241.204 18.5773 240.98 18.4093 240.718 18.288C240.457 18.1573 240.191 18.092 239.92 18.092C239.267 18.092 238.758 18.2927 238.394 18.694C238.04 19.0953 237.862 19.7113 237.862 20.542C237.862 21.3633 238.04 21.9793 238.394 22.39C238.758 22.7913 239.267 22.992 239.92 22.992C240.219 22.992 240.494 22.922 240.746 22.782C241.008 22.6327 241.222 22.4647 241.39 22.278L242.146 23.104ZM242.996 19.212C242.996 18.9133 243.047 18.6333 243.15 18.372C243.252 18.1107 243.397 17.8867 243.584 17.7C243.77 17.504 243.994 17.35 244.256 17.238C244.526 17.126 244.825 17.07 245.152 17.07H248.456V24H247.308V21.13H245.796C245.646 21.1393 245.497 21.1627 245.348 21.2C245.198 21.2373 245.054 21.298 244.914 21.382C244.783 21.466 244.666 21.578 244.564 21.718C244.461 21.858 244.386 22.04 244.34 22.264L243.962 24H242.758L243.206 22.124C243.271 21.844 243.374 21.5967 243.514 21.382C243.663 21.158 243.915 20.9853 244.27 20.864C243.794 20.7613 243.462 20.5513 243.276 20.234C243.089 19.9167 242.996 19.576 242.996 19.212ZM244.144 19.184C244.144 19.5387 244.274 19.8 244.536 19.968C244.797 20.1267 245.124 20.206 245.516 20.206H247.308V18.078H245.334C245.184 18.078 245.035 18.1013 244.886 18.148C244.746 18.1947 244.62 18.2647 244.508 18.358C244.396 18.4513 244.307 18.568 244.242 18.708C244.176 18.848 244.144 19.0067 244.144 19.184ZM63.194 40V34.064H59.988V40H58.84V33.056H64.342V40H63.194ZM67.1097 33.056V33.826L67.1517 33.84C67.4224 33.532 67.7164 33.3127 68.0337 33.182C68.3604 33.0513 68.6964 32.986 69.0417 32.986C69.5364 32.986 69.9424 33.0887 70.2597 33.294C70.5864 33.49 70.8431 33.756 71.0297 34.092C71.2164 34.4187 71.3424 34.792 71.4077 35.212C71.4824 35.6227 71.5197 36.0427 71.5197 36.472C71.5197 36.92 71.4824 37.3633 71.4077 37.802C71.3331 38.2313 71.1931 38.614 70.9877 38.95C70.7824 39.286 70.5024 39.5613 70.1477 39.776C69.8024 39.9813 69.3591 40.084 68.8177 40.084C68.4724 40.084 68.1551 40.028 67.8657 39.916C67.5857 39.804 67.3431 39.6267 67.1377 39.384H67.1097V42.772H65.9617V33.056H67.1097ZM67.1097 36.542C67.1097 36.8033 67.1237 37.0787 67.1517 37.368C67.1891 37.648 67.2591 37.9047 67.3617 38.138C67.4737 38.3713 67.6324 38.5627 67.8377 38.712C68.0431 38.8613 68.3231 38.936 68.6777 38.936C69.0417 38.936 69.3311 38.866 69.5457 38.726C69.7604 38.5767 69.9237 38.39 70.0357 38.166C70.1477 37.9327 70.2224 37.676 70.2597 37.396C70.2971 37.1067 70.3157 36.822 70.3157 36.542C70.3157 36.2713 70.3017 35.996 70.2737 35.716C70.2457 35.4267 70.1804 35.1653 70.0777 34.932C69.9751 34.6893 69.8164 34.4933 69.6017 34.344C69.3964 34.1947 69.1117 34.12 68.7477 34.12C68.3931 34.12 68.1084 34.1993 67.8937 34.358C67.6791 34.5167 67.5111 34.7173 67.3897 34.96C67.2777 35.1933 67.2031 35.4547 67.1657 35.744C67.1284 36.024 67.1097 36.29 67.1097 36.542ZM73.9141 36.92V37.032C73.9141 37.3027 73.9514 37.5593 74.0261 37.802C74.1007 38.0447 74.2127 38.2593 74.3621 38.446C74.5114 38.6233 74.6981 38.7633 74.9221 38.866C75.1461 38.9687 75.4074 39.02 75.7061 39.02C75.9301 39.02 76.1867 38.964 76.4761 38.852C76.7747 38.74 77.0407 38.5767 77.2741 38.362L78.0161 39.188C77.6894 39.5053 77.3207 39.734 76.9101 39.874C76.4994 40.014 76.0794 40.084 75.6501 40.084C75.2954 40.084 74.9407 40.0373 74.5861 39.944C74.2407 39.8413 73.9281 39.6593 73.6481 39.398C73.3681 39.1367 73.1394 38.7773 72.9621 38.32C72.7941 37.8627 72.7101 37.2747 72.7101 36.556C72.7101 35.8747 72.7987 35.3053 72.9761 34.848C73.1534 34.3813 73.3821 34.0127 73.6621 33.742C73.9421 33.462 74.2547 33.266 74.6001 33.154C74.9454 33.0327 75.2814 32.972 75.6081 32.972C75.9907 32.972 76.3501 33.042 76.6861 33.182C77.0221 33.3127 77.3161 33.5087 77.5681 33.77C77.8201 34.0313 78.0161 34.3533 78.1561 34.736C78.3054 35.1093 78.3801 35.5387 78.3801 36.024V36.92H73.9141ZM75.5521 34.064C75.0761 34.064 74.6934 34.2273 74.4041 34.554C74.1147 34.8807 73.9514 35.3473 73.9141 35.954H77.1761C77.1481 35.3287 76.9894 34.8573 76.7001 34.54C76.4107 34.2227 76.0281 34.064 75.5521 34.064ZM81.8863 34.064L81.8023 35.968C81.765 36.696 81.7136 37.3027 81.6483 37.788C81.5923 38.264 81.4616 38.6607 81.2563 38.978H84.5883V34.064H81.8863ZM79.8143 38.964C80.001 38.8427 80.1503 38.7073 80.2623 38.558C80.3743 38.3993 80.4583 38.208 80.5143 37.984C80.5796 37.7507 80.6263 37.4753 80.6543 37.158C80.6823 36.8407 80.7103 36.458 80.7383 36.01L80.8783 33.056H85.7643V38.978H86.4783V41.89H85.3443V40H80.2483V41.89H79.1143V39.09L79.8143 38.964ZM93.08 37.956C93.08 38.2547 93.0193 38.53 92.898 38.782C92.786 39.0247 92.6273 39.2393 92.422 39.426C92.226 39.6033 91.9926 39.7433 91.722 39.846C91.4513 39.9487 91.1666 40 90.868 40H87.564V33.056H90.56C90.952 33.056 91.2926 33.1073 91.582 33.21C91.8806 33.3033 92.128 33.4387 92.324 33.616C92.52 33.784 92.6646 33.9847 92.758 34.218C92.8606 34.4513 92.912 34.7033 92.912 34.974C92.912 35.2447 92.8373 35.5107 92.688 35.772C92.548 36.0333 92.3006 36.2433 91.946 36.402C92.3566 36.5327 92.646 36.7427 92.814 37.032C92.9913 37.3213 93.08 37.6293 93.08 37.956ZM88.726 36.906V38.936H90.602C91.05 38.936 91.3813 38.838 91.596 38.642C91.82 38.446 91.932 38.2127 91.932 37.942C91.932 37.6713 91.82 37.4333 91.596 37.228C91.3813 37.0133 91.05 36.906 90.602 36.906H88.726ZM88.726 34.064V35.996H90.434C90.9193 35.996 91.26 35.9027 91.456 35.716C91.652 35.52 91.75 35.2867 91.75 35.016C91.75 34.7453 91.6426 34.5213 91.428 34.344C91.2133 34.1573 90.882 34.064 90.434 34.064H88.726ZM96.7265 32.986C97.0998 32.986 97.4545 33.0233 97.7905 33.098C98.1358 33.1633 98.4345 33.28 98.6865 33.448C98.9478 33.616 99.1532 33.8447 99.3025 34.134C99.4518 34.4233 99.5265 34.7873 99.5265 35.226V40H98.3645V39.398L98.3505 39.384C98.2198 39.5893 97.9865 39.7573 97.6505 39.888C97.3145 40.0187 96.9085 40.084 96.4325 40.084C95.6392 40.084 95.0278 39.8927 94.5985 39.51C94.1785 39.118 93.9685 38.6233 93.9685 38.026C93.9685 37.7553 94.0152 37.4987 94.1085 37.256C94.2018 37.004 94.3372 36.7847 94.5145 36.598C94.7012 36.4113 94.9298 36.262 95.2005 36.15C95.4805 36.038 95.8072 35.982 96.1805 35.982H98.3645V35.198C98.3645 34.8153 98.2385 34.5307 97.9865 34.344C97.7345 34.1573 97.3285 34.064 96.7685 34.064C96.3298 34.064 95.9845 34.12 95.7325 34.232C95.4805 34.3347 95.2752 34.4793 95.1165 34.666L94.3885 33.896C94.6498 33.5973 94.9858 33.3733 95.3965 33.224C95.8072 33.0653 96.2505 32.986 96.7265 32.986ZM95.0605 37.956C95.0605 38.2827 95.1818 38.544 95.4245 38.74C95.6765 38.936 96.0592 39.034 96.5725 39.034C96.7965 39.034 97.0158 39.0153 97.2305 38.978C97.4452 38.9407 97.6365 38.8753 97.8045 38.782C97.9725 38.6793 98.1078 38.5487 98.2105 38.39C98.3132 38.222 98.3645 38.0073 98.3645 37.746V36.934H96.4605C96.0125 36.934 95.6672 37.0227 95.4245 37.2C95.1818 37.3773 95.0605 37.6293 95.0605 37.956ZM102.164 33.056V33.826L102.206 33.84C102.477 33.532 102.771 33.3127 103.088 33.182C103.415 33.0513 103.751 32.986 104.096 32.986C104.591 32.986 104.997 33.0887 105.314 33.294C105.641 33.49 105.898 33.756 106.084 34.092C106.271 34.4187 106.397 34.792 106.462 35.212C106.537 35.6227 106.574 36.0427 106.574 36.472C106.574 36.92 106.537 37.3633 106.462 37.802C106.388 38.2313 106.248 38.614 106.042 38.95C105.837 39.286 105.557 39.5613 105.202 39.776C104.857 39.9813 104.414 40.084 103.872 40.084C103.527 40.084 103.21 40.028 102.92 39.916C102.64 39.804 102.398 39.6267 102.192 39.384H102.164V42.772H101.016V33.056H102.164ZM102.164 36.542C102.164 36.8033 102.178 37.0787 102.206 37.368C102.244 37.648 102.314 37.9047 102.416 38.138C102.528 38.3713 102.687 38.5627 102.892 38.712C103.098 38.8613 103.378 38.936 103.732 38.936C104.096 38.936 104.386 38.866 104.6 38.726C104.815 38.5767 104.978 38.39 105.09 38.166C105.202 37.9327 105.277 37.676 105.314 37.396C105.352 37.1067 105.37 36.822 105.37 36.542C105.37 36.2713 105.356 35.996 105.328 35.716C105.3 35.4267 105.235 35.1653 105.132 34.932C105.03 34.6893 104.871 34.4933 104.656 34.344C104.451 34.1947 104.166 34.12 103.802 34.12C103.448 34.12 103.163 34.1993 102.948 34.358C102.734 34.5167 102.566 34.7173 102.444 34.96C102.332 35.1933 102.258 35.4547 102.22 35.744C102.183 36.024 102.164 36.29 102.164 36.542ZM109.277 38.11L110.243 36.696L112.819 33.056H113.785V40H112.609V35.072L112.553 35.086L111.629 36.416L109.151 40H108.045V33.056H109.207V38.11H109.277ZM117.975 34.064V40H116.813V34.064H114.643V33.07H120.159V34.064H117.975ZM121.93 36.92V37.032C121.93 37.3027 121.967 37.5593 122.042 37.802C122.116 38.0447 122.228 38.2593 122.378 38.446C122.527 38.6233 122.714 38.7633 122.938 38.866C123.162 38.9687 123.423 39.02 123.722 39.02C123.946 39.02 124.202 38.964 124.492 38.852C124.79 38.74 125.056 38.5767 125.29 38.362L126.032 39.188C125.705 39.5053 125.336 39.734 124.926 39.874C124.515 40.014 124.095 40.084 123.666 40.084C123.311 40.084 122.956 40.0373 122.602 39.944C122.256 39.8413 121.944 39.6593 121.664 39.398C121.384 39.1367 121.155 38.7773 120.978 38.32C120.81 37.8627 120.726 37.2747 120.726 36.556C120.726 35.8747 120.814 35.3053 120.992 34.848C121.169 34.3813 121.398 34.0127 121.678 33.742C121.958 33.462 122.27 33.266 122.616 33.154C122.961 33.0327 123.297 32.972 123.624 32.972C124.006 32.972 124.366 33.042 124.702 33.182C125.038 33.3127 125.332 33.5087 125.584 33.77C125.836 34.0313 126.032 34.3533 126.172 34.736C126.321 35.1093 126.396 35.5387 126.396 36.024V36.92H121.93ZM123.568 34.064C123.092 34.064 122.709 34.2273 122.42 34.554C122.13 34.8807 121.967 35.3473 121.93 35.954H125.192C125.164 35.3287 125.005 34.8573 124.716 34.54C124.426 34.2227 124.044 34.064 123.568 34.064ZM129.608 34.064V36.29C129.608 37.0087 129.552 37.606 129.44 38.082C129.337 38.5487 129.188 38.9267 128.992 39.216C128.796 39.5053 128.553 39.7247 128.264 39.874C127.984 40.014 127.662 40.1167 127.298 40.182L126.99 39.216C127.242 39.1227 127.461 39.0293 127.648 38.936C127.844 38.8427 128.003 38.698 128.124 38.502C128.245 38.2967 128.334 38.0167 128.39 37.662C128.455 37.3073 128.488 36.8267 128.488 36.22V33.056H133.304V40H132.128V34.064H129.608ZM139.469 37.858C139.469 37.5967 139.371 37.3587 139.175 37.144C138.979 36.9293 138.657 36.822 138.209 36.822L136.291 36.808V38.936H138.209C138.61 38.936 138.918 38.8473 139.133 38.67C139.357 38.4833 139.469 38.2127 139.469 37.858ZM136.305 35.758H138.251C138.643 35.758 138.988 35.814 139.287 35.926C139.595 36.0287 139.847 36.1733 140.043 36.36C140.248 36.5467 140.402 36.7707 140.505 37.032C140.608 37.284 140.659 37.5593 140.659 37.858C140.659 38.502 140.449 39.02 140.029 39.412C139.618 39.804 139.021 40 138.237 40H135.129L135.143 33.056H136.305V35.758ZM145.895 40V36.962H142.689V40H141.527V33.056H142.689V36.038H145.895V33.056H147.043V40H145.895ZM154.964 40V33.07H156.126V40H154.964ZM152.962 37.858C152.962 37.5967 152.864 37.3587 152.668 37.144C152.472 36.9293 152.15 36.822 151.702 36.822L149.784 36.808V38.936H151.702C152.103 38.936 152.411 38.8473 152.626 38.67C152.85 38.4833 152.962 38.2127 152.962 37.858ZM149.798 35.758H151.744C152.136 35.758 152.481 35.814 152.78 35.926C153.088 36.0287 153.34 36.1733 153.536 36.36C153.741 36.5467 153.895 36.7707 153.998 37.032C154.1 37.284 154.152 37.5593 154.152 37.858C154.152 38.502 153.942 39.02 153.522 39.412C153.111 39.804 152.514 40 151.73 40H148.636V33.056H149.798V35.758ZM163.509 40V35.534C163.434 35.6927 163.359 35.8467 163.285 35.996C163.21 36.136 163.135 36.2807 163.061 36.43L161.717 39.006H160.765L159.379 36.36L158.959 35.52V40H157.797V33.056H158.917L160.555 36.346C160.685 36.598 160.802 36.8453 160.905 37.088C161.017 37.3307 161.138 37.578 161.269 37.83C161.39 37.5967 161.502 37.3493 161.605 37.088C161.717 36.8267 161.833 36.5793 161.955 36.346L163.579 33.056H164.671V40H163.509ZM167.56 38.11L168.526 36.696L171.102 33.056H172.068V40H170.892V35.072L170.836 35.086L169.912 36.416L167.434 40H166.328V33.056H167.49V38.11H167.56ZM173.892 40V38.446H175.334V40H173.892ZM180.483 38.908C180.754 38.7307 180.969 38.5207 181.127 38.278C181.286 38.026 181.407 37.7227 181.491 37.368C181.575 37.0133 181.631 36.5933 181.659 36.108C181.687 35.6133 181.715 35.03 181.743 34.358L181.869 30.256H188.099L188.113 38.922H189.009V42.086H187.805V40H180.945V42.086H179.727V39.076L180.483 38.908ZM183.003 31.334L182.905 34.302C182.887 34.862 182.863 35.3753 182.835 35.842C182.817 36.3087 182.779 36.7333 182.723 37.116C182.667 37.4987 182.593 37.8393 182.499 38.138C182.406 38.4367 182.28 38.698 182.121 38.922H186.867V31.334H183.003ZM192.047 34.064V36.29C192.047 37.0087 191.991 37.606 191.879 38.082C191.777 38.5487 191.627 38.9267 191.431 39.216C191.235 39.5053 190.993 39.7247 190.703 39.874C190.423 40.014 190.101 40.1167 189.737 40.182L189.429 39.216C189.681 39.1227 189.901 39.0293 190.087 38.936C190.283 38.8427 190.442 38.698 190.563 38.502C190.685 38.2967 190.773 38.0167 190.829 37.662C190.895 37.3073 190.927 36.8267 190.927 36.22V33.056H195.743V40H194.567V34.064H192.047ZM197.373 35.212C197.373 34.9133 197.424 34.6333 197.527 34.372C197.629 34.1107 197.774 33.8867 197.961 33.7C198.147 33.504 198.371 33.35 198.633 33.238C198.903 33.126 199.202 33.07 199.529 33.07H202.833V40H201.685V37.13H200.173C200.023 37.1393 199.874 37.1627 199.725 37.2C199.575 37.2373 199.431 37.298 199.291 37.382C199.16 37.466 199.043 37.578 198.941 37.718C198.838 37.858 198.763 38.04 198.717 38.264L198.339 40H197.135L197.583 38.124C197.648 37.844 197.751 37.5967 197.891 37.382C198.04 37.158 198.292 36.9853 198.647 36.864C198.171 36.7613 197.839 36.5513 197.653 36.234C197.466 35.9167 197.373 35.576 197.373 35.212ZM198.521 35.184C198.521 35.5387 198.651 35.8 198.913 35.968C199.174 36.1267 199.501 36.206 199.893 36.206H201.685V34.078H199.711C199.561 34.078 199.412 34.1013 199.263 34.148C199.123 34.1947 198.997 34.2647 198.885 34.358C198.773 34.4513 198.684 34.568 198.619 34.708C198.553 34.848 198.521 35.0067 198.521 35.184ZM208.682 33.056V33.826L208.724 33.84C208.995 33.532 209.289 33.3127 209.606 33.182C209.933 33.0513 210.269 32.986 210.614 32.986C211.109 32.986 211.515 33.0887 211.832 33.294C212.159 33.49 212.415 33.756 212.602 34.092C212.789 34.4187 212.915 34.792 212.98 35.212C213.055 35.6227 213.092 36.0427 213.092 36.472C213.092 36.92 213.055 37.3633 212.98 37.802C212.905 38.2313 212.765 38.614 212.56 38.95C212.355 39.286 212.075 39.5613 211.72 39.776C211.375 39.9813 210.931 40.084 210.39 40.084C210.045 40.084 209.727 40.028 209.438 39.916C209.158 39.804 208.915 39.6267 208.71 39.384H208.682V42.772H207.534V33.056H208.682ZM208.682 36.542C208.682 36.8033 208.696 37.0787 208.724 37.368C208.761 37.648 208.831 37.9047 208.934 38.138C209.046 38.3713 209.205 38.5627 209.41 38.712C209.615 38.8613 209.895 38.936 210.25 38.936C210.614 38.936 210.903 38.866 211.118 38.726C211.333 38.5767 211.496 38.39 211.608 38.166C211.72 37.9327 211.795 37.676 211.832 37.396C211.869 37.1067 211.888 36.822 211.888 36.542C211.888 36.2713 211.874 35.996 211.846 35.716C211.818 35.4267 211.753 35.1653 211.65 34.932C211.547 34.6893 211.389 34.4933 211.174 34.344C210.969 34.1947 210.684 34.12 210.32 34.12C209.965 34.12 209.681 34.1993 209.466 34.358C209.251 34.5167 209.083 34.7173 208.962 34.96C208.85 35.1933 208.775 35.4547 208.738 35.744C208.701 36.024 208.682 36.29 208.682 36.542ZM216.984 32.986C217.358 32.986 217.712 33.0233 218.048 33.098C218.394 33.1633 218.692 33.28 218.944 33.448C219.206 33.616 219.411 33.8447 219.56 34.134C219.71 34.4233 219.784 34.7873 219.784 35.226V40H218.622V39.398L218.608 39.384C218.478 39.5893 218.244 39.7573 217.908 39.888C217.572 40.0187 217.166 40.084 216.69 40.084C215.897 40.084 215.286 39.8927 214.856 39.51C214.436 39.118 214.226 38.6233 214.226 38.026C214.226 37.7553 214.273 37.4987 214.366 37.256C214.46 37.004 214.595 36.7847 214.772 36.598C214.959 36.4113 215.188 36.262 215.458 36.15C215.738 36.038 216.065 35.982 216.438 35.982H218.622V35.198C218.622 34.8153 218.496 34.5307 218.244 34.344C217.992 34.1573 217.586 34.064 217.026 34.064C216.588 34.064 216.242 34.12 215.99 34.232C215.738 34.3347 215.533 34.4793 215.374 34.666L214.646 33.896C214.908 33.5973 215.244 33.3733 215.654 33.224C216.065 33.0653 216.508 32.986 216.984 32.986ZM215.318 37.956C215.318 38.2827 215.44 38.544 215.682 38.74C215.934 38.936 216.317 39.034 216.83 39.034C217.054 39.034 217.274 39.0153 217.488 38.978C217.703 38.9407 217.894 38.8753 218.062 38.782C218.23 38.6793 218.366 38.5487 218.468 38.39C218.571 38.222 218.622 38.0073 218.622 37.746V36.934H216.718C216.27 36.934 215.925 37.0227 215.682 37.2C215.44 37.3773 215.318 37.6293 215.318 37.956ZM226.314 39.104C226.016 39.4027 225.68 39.6407 225.306 39.818C224.933 39.9953 224.508 40.084 224.032 40.084C223.631 40.084 223.239 40.0187 222.856 39.888C222.483 39.7573 222.147 39.552 221.848 39.272C221.559 38.9827 221.326 38.614 221.148 38.166C220.971 37.718 220.882 37.1767 220.882 36.542C220.882 35.898 220.971 35.352 221.148 34.904C221.326 34.456 221.559 34.092 221.848 33.812C222.147 33.5227 222.483 33.3127 222.856 33.182C223.239 33.0513 223.631 32.986 224.032 32.986C224.499 32.986 224.919 33.0747 225.292 33.252C225.666 33.4293 226.002 33.6627 226.3 33.952L225.558 34.792C225.372 34.5773 225.148 34.4093 224.886 34.288C224.625 34.1573 224.359 34.092 224.088 34.092C223.435 34.092 222.926 34.2927 222.562 34.694C222.208 35.0953 222.03 35.7113 222.03 36.542C222.03 37.3633 222.208 37.9793 222.562 38.39C222.926 38.7913 223.435 38.992 224.088 38.992C224.387 38.992 224.662 38.922 224.914 38.782C225.176 38.6327 225.39 38.4647 225.558 38.278L226.314 39.104ZM228.158 33.042V35.114C228.158 35.6367 228.274 35.996 228.508 36.192C228.75 36.3787 229.082 36.472 229.502 36.472C229.595 36.472 229.716 36.4627 229.866 36.444C230.024 36.4253 230.188 36.3927 230.356 36.346C230.524 36.2993 230.696 36.2433 230.874 36.178C231.051 36.1033 231.21 36.0147 231.35 35.912V33.042H232.498V40H231.35V36.99H231.308C231.009 37.186 230.678 37.3353 230.314 37.438C229.959 37.5313 229.632 37.578 229.334 37.578C228.988 37.578 228.671 37.536 228.382 37.452C228.102 37.3587 227.859 37.2187 227.654 37.032C227.448 36.836 227.29 36.5887 227.178 36.29C227.066 35.982 227.01 35.6133 227.01 35.184V33.042H228.158ZM235.037 36.92V37.032C235.037 37.3027 235.074 37.5593 235.149 37.802C235.224 38.0447 235.336 38.2593 235.485 38.446C235.634 38.6233 235.821 38.7633 236.045 38.866C236.269 38.9687 236.53 39.02 236.829 39.02C237.053 39.02 237.31 38.964 237.599 38.852C237.898 38.74 238.164 38.5767 238.397 38.362L239.139 39.188C238.812 39.5053 238.444 39.734 238.033 39.874C237.622 40.014 237.202 40.084 236.773 40.084C236.418 40.084 236.064 40.0373 235.709 39.944C235.364 39.8413 235.051 39.6593 234.771 39.398C234.491 39.1367 234.262 38.7773 234.085 38.32C233.917 37.8627 233.833 37.2747 233.833 36.556C233.833 35.8747 233.922 35.3053 234.099 34.848C234.276 34.3813 234.505 34.0127 234.785 33.742C235.065 33.462 235.378 33.266 235.723 33.154C236.068 33.0327 236.404 32.972 236.731 32.972C237.114 32.972 237.473 33.042 237.809 33.182C238.145 33.3127 238.439 33.5087 238.691 33.77C238.943 34.0313 239.139 34.3533 239.279 34.736C239.428 35.1093 239.503 35.5387 239.503 36.024V36.92H235.037ZM236.675 34.064C236.199 34.064 235.816 34.2273 235.527 34.554C235.238 34.8807 235.074 35.3473 235.037 35.954H238.299C238.271 35.3287 238.112 34.8573 237.823 34.54C237.534 34.2227 237.151 34.064 236.675 34.064ZM243.373 34.064V40H242.211V34.064H240.041V33.07H245.557V34.064H243.373ZM248.826 32.986C249.199 32.986 249.554 33.0233 249.89 33.098C250.235 33.1633 250.534 33.28 250.786 33.448C251.047 33.616 251.253 33.8447 251.402 34.134C251.551 34.4233 251.626 34.7873 251.626 35.226V40H250.464V39.398L250.45 39.384C250.319 39.5893 250.086 39.7573 249.75 39.888C249.414 40.0187 249.008 40.084 248.532 40.084C247.739 40.084 247.127 39.8927 246.698 39.51C246.278 39.118 246.068 38.6233 246.068 38.026C246.068 37.7553 246.115 37.4987 246.208 37.256C246.301 37.004 246.437 36.7847 246.614 36.598C246.801 36.4113 247.029 36.262 247.3 36.15C247.58 36.038 247.907 35.982 248.28 35.982H250.464V35.198C250.464 34.8153 250.338 34.5307 250.086 34.344C249.834 34.1573 249.428 34.064 248.868 34.064C248.429 34.064 248.084 34.12 247.832 34.232C247.58 34.3347 247.375 34.4793 247.216 34.666L246.488 33.896C246.749 33.5973 247.085 33.3733 247.496 33.224C247.907 33.0653 248.35 32.986 248.826 32.986ZM247.16 37.956C247.16 38.2827 247.281 38.544 247.524 38.74C247.776 38.936 248.159 39.034 248.672 39.034C248.896 39.034 249.115 39.0153 249.33 38.978C249.545 38.9407 249.736 38.8753 249.904 38.782C250.072 38.6793 250.207 38.5487 250.31 38.39C250.413 38.222 250.464 38.0073 250.464 37.746V36.934H248.56C248.112 36.934 247.767 37.0227 247.524 37.2C247.281 37.3773 247.16 37.6293 247.16 37.956ZM258.445 34.064L258.361 35.968C258.324 36.696 258.272 37.3027 258.207 37.788C258.151 38.264 258.02 38.6607 257.815 38.978H261.147V34.064H258.445ZM256.373 38.964C256.56 38.8427 256.709 38.7073 256.821 38.558C256.933 38.3993 257.017 38.208 257.073 37.984C257.138 37.7507 257.185 37.4753 257.213 37.158C257.241 36.8407 257.269 36.458 257.297 36.01L257.437 33.056H262.323V38.978H263.037V41.89H261.903V40H256.807V41.89H255.673V39.09L256.373 38.964ZM266.993 33C267.497 33 267.945 33.1027 268.337 33.308C268.729 33.504 269.046 33.7887 269.289 34.162C269.447 34.414 269.564 34.722 269.639 35.086C269.723 35.4407 269.765 35.842 269.765 36.29C269.765 36.8873 269.732 37.3913 269.667 37.802C269.601 38.2033 269.489 38.5393 269.331 38.81C269.088 39.2207 268.747 39.538 268.309 39.762C267.879 39.9767 267.389 40.084 266.839 40.084C266.335 40.084 265.887 40 265.495 39.832C265.103 39.6547 264.785 39.3887 264.543 39.034C264.356 38.7447 264.221 38.3993 264.137 37.998C264.062 37.5967 264.025 37.116 264.025 36.556C264.025 36.164 264.048 35.8047 264.095 35.478C264.151 35.142 264.244 34.8387 264.375 34.568C264.608 34.064 264.949 33.6767 265.397 33.406C265.854 33.1353 266.386 33 266.993 33ZM266.951 34.036C266.605 34.036 266.297 34.1247 266.027 34.302C265.765 34.47 265.565 34.708 265.425 35.016C265.322 35.2307 265.257 35.4687 265.229 35.73C265.201 35.982 265.182 36.262 265.173 36.57C265.173 36.878 265.182 37.158 265.201 37.41C265.229 37.6527 265.289 37.8767 265.383 38.082C265.513 38.3807 265.705 38.614 265.957 38.782C266.209 38.95 266.507 39.034 266.853 39.034C267.226 39.034 267.557 38.936 267.847 38.74C268.145 38.544 268.36 38.2313 268.491 37.802C268.537 37.634 268.565 37.4427 268.575 37.228C268.593 37.004 268.603 36.7053 268.603 36.332C268.603 36.0613 268.589 35.8233 268.561 35.618C268.542 35.4033 268.495 35.212 268.421 35.044C268.29 34.6987 268.094 34.4467 267.833 34.288C267.571 34.12 267.277 34.036 266.951 34.036ZM275.388 40L273.75 37.298L272.112 40H270.726L273.092 36.444L270.838 33.056H272.21L273.75 35.66L275.29 33.056H276.676L274.408 36.458L276.774 40H275.388ZM280.664 33C281.168 33 281.616 33.1027 282.008 33.308C282.4 33.504 282.718 33.7887 282.96 34.162C283.119 34.414 283.236 34.722 283.31 35.086C283.394 35.4407 283.436 35.842 283.436 36.29C283.436 36.8873 283.404 37.3913 283.338 37.802C283.273 38.2033 283.161 38.5393 283.002 38.81C282.76 39.2207 282.419 39.538 281.98 39.762C281.551 39.9767 281.061 40.084 280.51 40.084C280.006 40.084 279.558 40 279.166 39.832C278.774 39.6547 278.457 39.3887 278.214 39.034C278.028 38.7447 277.892 38.3993 277.808 37.998C277.734 37.5967 277.696 37.116 277.696 36.556C277.696 36.164 277.72 35.8047 277.766 35.478C277.822 35.142 277.916 34.8387 278.046 34.568C278.28 34.064 278.62 33.6767 279.068 33.406C279.526 33.1353 280.058 33 280.664 33ZM280.622 34.036C280.277 34.036 279.969 34.1247 279.698 34.302C279.437 34.47 279.236 34.708 279.096 35.016C278.994 35.2307 278.928 35.4687 278.9 35.73C278.872 35.982 278.854 36.262 278.844 36.57C278.844 36.878 278.854 37.158 278.872 37.41C278.9 37.6527 278.961 37.8767 279.054 38.082C279.185 38.3807 279.376 38.614 279.628 38.782C279.88 38.95 280.179 39.034 280.524 39.034C280.898 39.034 281.229 38.936 281.518 38.74C281.817 38.544 282.032 38.2313 282.162 37.802C282.209 37.634 282.237 37.4427 282.246 37.228C282.265 37.004 282.274 36.7053 282.274 36.332C282.274 36.0613 282.26 35.8233 282.232 35.618C282.214 35.4033 282.167 35.212 282.092 35.044C281.962 34.6987 281.766 34.4467 281.504 34.288C281.243 34.12 280.949 34.036 280.622 34.036ZM287.156 34.064L287.072 35.968C287.034 36.696 286.983 37.3027 286.918 37.788C286.862 38.264 286.731 38.6607 286.526 38.978H289.858V34.064H287.156ZM285.084 38.964C285.27 38.8427 285.42 38.7073 285.532 38.558C285.644 38.3993 285.728 38.208 285.784 37.984C285.849 37.7507 285.896 37.4753 285.924 37.158C285.952 36.8407 285.98 36.458 286.008 36.01L286.148 33.056H291.034V38.978H291.748V41.89H290.614V40H285.518V41.89H284.384V39.09L285.084 38.964ZM295.269 32.986C295.643 32.986 295.997 33.0233 296.333 33.098C296.679 33.1633 296.977 33.28 297.229 33.448C297.491 33.616 297.696 33.8447 297.845 34.134C297.995 34.4233 298.069 34.7873 298.069 35.226V40H296.907V39.398L296.893 39.384C296.763 39.5893 296.529 39.7573 296.193 39.888C295.857 40.0187 295.451 40.084 294.975 40.084C294.182 40.084 293.571 39.8927 293.141 39.51C292.721 39.118 292.511 38.6233 292.511 38.026C292.511 37.7553 292.558 37.4987 292.651 37.256C292.745 37.004 292.88 36.7847 293.057 36.598C293.244 36.4113 293.473 36.262 293.743 36.15C294.023 36.038 294.35 35.982 294.723 35.982H296.907V35.198C296.907 34.8153 296.781 34.5307 296.529 34.344C296.277 34.1573 295.871 34.064 295.311 34.064C294.873 34.064 294.527 34.12 294.275 34.232C294.023 34.3347 293.818 34.4793 293.659 34.666L292.931 33.896C293.193 33.5973 293.529 33.3733 293.939 33.224C294.35 33.0653 294.793 32.986 295.269 32.986ZM293.603 37.956C293.603 38.2827 293.725 38.544 293.967 38.74C294.219 38.936 294.602 39.034 295.115 39.034C295.339 39.034 295.559 39.0153 295.773 38.978C295.988 38.9407 296.179 38.8753 296.347 38.782C296.515 38.6793 296.651 38.5487 296.753 38.39C296.856 38.222 296.907 38.0073 296.907 37.746V36.934H295.003C294.555 36.934 294.21 37.0227 293.967 37.2C293.725 37.3773 293.603 37.6293 293.603 37.956ZM63.194 56V50.064H59.988V56H58.84V49.056H64.342V56H63.194ZM67.1097 49.056V49.826L67.1517 49.84C67.4224 49.532 67.7164 49.3127 68.0337 49.182C68.3604 49.0513 68.6964 48.986 69.0417 48.986C69.5364 48.986 69.9424 49.0887 70.2597 49.294C70.5864 49.49 70.8431 49.756 71.0297 50.092C71.2164 50.4187 71.3424 50.792 71.4077 51.212C71.4824 51.6227 71.5197 52.0427 71.5197 52.472C71.5197 52.92 71.4824 53.3633 71.4077 53.802C71.3331 54.2313 71.1931 54.614 70.9877 54.95C70.7824 55.286 70.5024 55.5613 70.1477 55.776C69.8024 55.9813 69.3591 56.084 68.8177 56.084C68.4724 56.084 68.1551 56.028 67.8657 55.916C67.5857 55.804 67.3431 55.6267 67.1377 55.384H67.1097V58.772H65.9617V49.056H67.1097ZM67.1097 52.542C67.1097 52.8033 67.1237 53.0787 67.1517 53.368C67.1891 53.648 67.2591 53.9047 67.3617 54.138C67.4737 54.3713 67.6324 54.5627 67.8377 54.712C68.0431 54.8613 68.3231 54.936 68.6777 54.936C69.0417 54.936 69.3311 54.866 69.5457 54.726C69.7604 54.5767 69.9237 54.39 70.0357 54.166C70.1477 53.9327 70.2224 53.676 70.2597 53.396C70.2971 53.1067 70.3157 52.822 70.3157 52.542C70.3157 52.2713 70.3017 51.996 70.2737 51.716C70.2457 51.4267 70.1804 51.1653 70.0777 50.932C69.9751 50.6893 69.8164 50.4933 69.6017 50.344C69.3964 50.1947 69.1117 50.12 68.7477 50.12C68.3931 50.12 68.1084 50.1993 67.8937 50.358C67.6791 50.5167 67.5111 50.7173 67.3897 50.96C67.2777 51.1933 67.2031 51.4547 67.1657 51.744C67.1284 52.024 67.1097 52.29 67.1097 52.542ZM74.2221 54.11L75.1881 52.696L77.7641 49.056H78.7301V56H77.5541V51.072L77.4981 51.086L76.5741 52.416L74.0961 56H72.9901V49.056H74.1521V54.11H74.2221ZM86.1122 56V51.534C86.0376 51.6927 85.9629 51.8467 85.8882 51.996C85.8136 52.136 85.7389 52.2807 85.6642 52.43L84.3202 55.006H83.3682L81.9822 52.36L81.5622 51.52V56H80.4002V49.056H81.5202L83.1582 52.346C83.2889 52.598 83.4056 52.8453 83.5082 53.088C83.6202 53.3307 83.7416 53.578 83.8722 53.83C83.9936 53.5967 84.1056 53.3493 84.2082 53.088C84.3202 52.8267 84.4369 52.5793 84.5582 52.346L86.1822 49.056H87.2742V56H86.1122ZM89.8555 52.92V53.032C89.8555 53.3027 89.8928 53.5593 89.9675 53.802C90.0421 54.0447 90.1541 54.2593 90.3035 54.446C90.4528 54.6233 90.6395 54.7633 90.8635 54.866C91.0875 54.9687 91.3488 55.02 91.6475 55.02C91.8715 55.02 92.1281 54.964 92.4175 54.852C92.7161 54.74 92.9821 54.5767 93.2155 54.362L93.9575 55.188C93.6308 55.5053 93.2621 55.734 92.8515 55.874C92.4408 56.014 92.0208 56.084 91.5915 56.084C91.2368 56.084 90.8821 56.0373 90.5275 55.944C90.1821 55.8413 89.8695 55.6593 89.5895 55.398C89.3095 55.1367 89.0808 54.7773 88.9035 54.32C88.7355 53.8627 88.6515 53.2747 88.6515 52.556C88.6515 51.8747 88.7401 51.3053 88.9175 50.848C89.0948 50.3813 89.3235 50.0127 89.6035 49.742C89.8835 49.462 90.1961 49.266 90.5415 49.154C90.8868 49.0327 91.2228 48.972 91.5495 48.972C91.9321 48.972 92.2915 49.042 92.6275 49.182C92.9635 49.3127 93.2575 49.5087 93.5095 49.77C93.7615 50.0313 93.9575 50.3533 94.0975 50.736C94.2468 51.1093 94.3215 51.5387 94.3215 52.024V52.92H89.8555ZM91.4935 50.064C91.0175 50.064 90.6348 50.2273 90.3455 50.554C90.0561 50.8807 89.8928 51.3473 89.8555 51.954H93.1175C93.0895 51.3287 92.9308 50.8573 92.6415 50.54C92.3521 50.2227 91.9695 50.064 91.4935 50.064ZM100.026 56V52.962H96.8197V56H95.6577V49.056H96.8197V52.038H100.026V49.056H101.174V56H100.026ZM102.626 51.212C102.626 50.9133 102.678 50.6333 102.78 50.372C102.883 50.1107 103.028 49.8867 103.214 49.7C103.401 49.504 103.625 49.35 103.886 49.238C104.157 49.126 104.456 49.07 104.782 49.07H108.086V56H106.938V53.13H105.426C105.277 53.1393 105.128 53.1627 104.978 53.2C104.829 53.2373 104.684 53.298 104.544 53.382C104.414 53.466 104.297 53.578 104.194 53.718C104.092 53.858 104.017 54.04 103.97 54.264L103.592 56H102.388L102.836 54.124C102.902 53.844 103.004 53.5967 103.144 53.382C103.294 53.158 103.546 52.9853 103.9 52.864C103.424 52.7613 103.093 52.5513 102.906 52.234C102.72 51.9167 102.626 51.576 102.626 51.212ZM103.774 51.184C103.774 51.5387 103.905 51.8 104.166 51.968C104.428 52.1267 104.754 52.206 105.146 52.206H106.938V50.078H104.964C104.815 50.078 104.666 50.1013 104.516 50.148C104.376 50.1947 104.25 50.2647 104.138 50.358C104.026 50.4513 103.938 50.568 103.872 50.708C103.807 50.848 103.774 51.0067 103.774 51.184ZM109.713 49.07H110.861V52.038H111.827C111.855 51.4687 111.958 50.9787 112.135 50.568C112.35 50.064 112.662 49.6767 113.073 49.406C113.493 49.1353 113.983 49 114.543 49C115.019 49 115.448 49.0887 115.831 49.266C116.223 49.434 116.531 49.7047 116.755 50.078C116.942 50.3767 117.068 50.7407 117.133 51.17C117.208 51.59 117.245 52.0613 117.245 52.584C117.245 53.0507 117.212 53.4707 117.147 53.844C117.091 54.2173 116.984 54.5393 116.825 54.81C116.582 55.258 116.251 55.5847 115.831 55.79C115.42 55.986 114.982 56.084 114.515 56.084C114.039 56.084 113.614 55.9953 113.241 55.818C112.868 55.6407 112.569 55.3793 112.345 55.034C112.205 54.8193 112.088 54.53 111.995 54.166C111.902 53.7927 111.846 53.3913 111.827 52.962H110.861V56H109.713V49.07ZM114.543 50.036C114.216 50.036 113.936 50.1247 113.703 50.302C113.479 50.47 113.302 50.708 113.171 51.016C113.115 51.1467 113.064 51.3613 113.017 51.66C112.98 51.9587 112.961 52.262 112.961 52.57C112.961 52.878 112.98 53.172 113.017 53.452C113.054 53.7227 113.106 53.9327 113.171 54.082C113.302 54.3807 113.479 54.614 113.703 54.782C113.936 54.95 114.216 55.034 114.543 55.034C114.888 55.034 115.187 54.9407 115.439 54.754C115.7 54.5673 115.887 54.2593 115.999 53.83C116.046 53.662 116.074 53.4753 116.083 53.27C116.092 53.0553 116.097 52.8173 116.097 52.556C116.097 52.2293 116.083 51.9353 116.055 51.674C116.036 51.4127 115.99 51.1887 115.915 51.002C115.784 50.6567 115.598 50.4093 115.355 50.26C115.122 50.1107 114.851 50.036 114.543 50.036ZM121.325 50.064V56H120.163V50.064H117.993V49.07H123.509V50.064H121.325ZM129.353 55.104C129.055 55.4027 128.719 55.6407 128.345 55.818C127.972 55.9953 127.547 56.084 127.071 56.084C126.67 56.084 126.278 56.0187 125.895 55.888C125.522 55.7573 125.186 55.552 124.887 55.272C124.598 54.9827 124.365 54.614 124.187 54.166C124.01 53.718 123.921 53.1767 123.921 52.542C123.921 51.898 124.01 51.352 124.187 50.904C124.365 50.456 124.598 50.092 124.887 49.812C125.186 49.5227 125.522 49.3127 125.895 49.182C126.278 49.0513 126.67 48.986 127.071 48.986C127.538 48.986 127.958 49.0747 128.331 49.252C128.705 49.4293 129.041 49.6627 129.339 49.952L128.597 50.792C128.411 50.5773 128.187 50.4093 127.925 50.288C127.664 50.1573 127.398 50.092 127.127 50.092C126.474 50.092 125.965 50.2927 125.601 50.694C125.247 51.0953 125.069 51.7113 125.069 52.542C125.069 53.3633 125.247 53.9793 125.601 54.39C125.965 54.7913 126.474 54.992 127.127 54.992C127.426 54.992 127.701 54.922 127.953 54.782C128.215 54.6327 128.429 54.4647 128.597 54.278L129.353 55.104ZM130.203 51.212C130.203 50.9133 130.254 50.6333 130.357 50.372C130.459 50.1107 130.604 49.8867 130.791 49.7C130.977 49.504 131.201 49.35 131.463 49.238C131.733 49.126 132.032 49.07 132.359 49.07H135.663V56H134.515V53.13H133.003C132.853 53.1393 132.704 53.1627 132.555 53.2C132.405 53.2373 132.261 53.298 132.121 53.382C131.99 53.466 131.873 53.578 131.771 53.718C131.668 53.858 131.593 54.04 131.547 54.264L131.169 56H129.965L130.413 54.124C130.478 53.844 130.581 53.5967 130.721 53.382C130.87 53.158 131.122 52.9853 131.477 52.864C131.001 52.7613 130.669 52.5513 130.483 52.234C130.296 51.9167 130.203 51.576 130.203 51.212ZM131.351 51.184C131.351 51.5387 131.481 51.8 131.743 51.968C132.004 52.1267 132.331 52.206 132.723 52.206H134.515V50.078H132.541C132.391 50.078 132.242 50.1013 132.093 50.148C131.953 50.1947 131.827 50.2647 131.715 50.358C131.603 50.4513 131.514 50.568 131.449 50.708C131.383 50.848 131.351 51.0067 131.351 51.184ZM144.774 56V50.064H141.568V56H140.42V49.056H145.922V56H144.774ZM148.69 49.056V49.826L148.732 49.84C149.002 49.532 149.296 49.3127 149.614 49.182C149.94 49.0513 150.276 48.986 150.622 48.986C151.116 48.986 151.522 49.0887 151.84 49.294C152.166 49.49 152.423 49.756 152.61 50.092C152.796 50.4187 152.922 50.792 152.988 51.212C153.062 51.6227 153.1 52.0427 153.1 52.472C153.1 52.92 153.062 53.3633 152.988 53.802C152.913 54.2313 152.773 54.614 152.568 54.95C152.362 55.286 152.082 55.5613 151.728 55.776C151.382 55.9813 150.939 56.084 150.398 56.084C150.052 56.084 149.735 56.028 149.446 55.916C149.166 55.804 148.923 55.6267 148.718 55.384H148.69V58.772H147.542V49.056H148.69ZM148.69 52.542C148.69 52.8033 148.704 53.0787 148.732 53.368C148.769 53.648 148.839 53.9047 148.942 54.138C149.054 54.3713 149.212 54.5627 149.418 54.712C149.623 54.8613 149.903 54.936 150.258 54.936C150.622 54.936 150.911 54.866 151.126 54.726C151.34 54.5767 151.504 54.39 151.616 54.166C151.728 53.9327 151.802 53.676 151.84 53.396C151.877 53.1067 151.896 52.822 151.896 52.542C151.896 52.2713 151.882 51.996 151.854 51.716C151.826 51.4267 151.76 51.1653 151.658 50.932C151.555 50.6893 151.396 50.4933 151.182 50.344C150.976 50.1947 150.692 50.12 150.328 50.12C149.973 50.12 149.688 50.1993 149.474 50.358C149.259 50.5167 149.091 50.7173 148.97 50.96C148.858 51.1933 148.783 51.4547 148.746 51.744C148.708 52.024 148.69 52.29 148.69 52.542ZM157.426 49C157.93 49 158.378 49.1027 158.77 49.308C159.162 49.504 159.479 49.7887 159.722 50.162C159.881 50.414 159.997 50.722 160.072 51.086C160.156 51.4407 160.198 51.842 160.198 52.29C160.198 52.8873 160.165 53.3913 160.1 53.802C160.035 54.2033 159.923 54.5393 159.764 54.81C159.521 55.2207 159.181 55.538 158.742 55.762C158.313 55.9767 157.823 56.084 157.272 56.084C156.768 56.084 156.32 56 155.928 55.832C155.536 55.6547 155.219 55.3887 154.976 55.034C154.789 54.7447 154.654 54.3993 154.57 53.998C154.495 53.5967 154.458 53.116 154.458 52.556C154.458 52.164 154.481 51.8047 154.528 51.478C154.584 51.142 154.677 50.8387 154.808 50.568C155.041 50.064 155.382 49.6767 155.83 49.406C156.287 49.1353 156.819 49 157.426 49ZM157.384 50.036C157.039 50.036 156.731 50.1247 156.46 50.302C156.199 50.47 155.998 50.708 155.858 51.016C155.755 51.2307 155.69 51.4687 155.662 51.73C155.634 51.982 155.615 52.262 155.606 52.57C155.606 52.878 155.615 53.158 155.634 53.41C155.662 53.6527 155.723 53.8767 155.816 54.082C155.947 54.3807 156.138 54.614 156.39 54.782C156.642 54.95 156.941 55.034 157.286 55.034C157.659 55.034 157.991 54.936 158.28 54.74C158.579 54.544 158.793 54.2313 158.924 53.802C158.971 53.634 158.999 53.4427 159.008 53.228C159.027 53.004 159.036 52.7053 159.036 52.332C159.036 52.0613 159.022 51.8233 158.994 51.618C158.975 51.4033 158.929 51.212 158.854 51.044C158.723 50.6987 158.527 50.4467 158.266 50.288C158.005 50.12 157.711 50.036 157.384 50.036ZM167.292 54.95H168.328V57.89H167.194V56H161.776V49.056H162.952V54.95H166.144V49.056H167.292V54.95ZM170.355 52.92V53.032C170.355 53.3027 170.393 53.5593 170.467 53.802C170.542 54.0447 170.654 54.2593 170.803 54.446C170.953 54.6233 171.139 54.7633 171.363 54.866C171.587 54.9687 171.849 55.02 172.147 55.02C172.371 55.02 172.628 54.964 172.917 54.852C173.216 54.74 173.482 54.5767 173.715 54.362L174.457 55.188C174.131 55.5053 173.762 55.734 173.351 55.874C172.941 56.014 172.521 56.084 172.091 56.084C171.737 56.084 171.382 56.0373 171.027 55.944C170.682 55.8413 170.369 55.6593 170.089 55.398C169.809 55.1367 169.581 54.7773 169.403 54.32C169.235 53.8627 169.151 53.2747 169.151 52.556C169.151 51.8747 169.24 51.3053 169.417 50.848C169.595 50.3813 169.823 50.0127 170.103 49.742C170.383 49.462 170.696 49.266 171.041 49.154C171.387 49.0327 171.723 48.972 172.049 48.972C172.432 48.972 172.791 49.042 173.127 49.182C173.463 49.3127 173.757 49.5087 174.009 49.77C174.261 50.0313 174.457 50.3533 174.597 50.736C174.747 51.1093 174.821 51.5387 174.821 52.024V52.92H170.355ZM171.993 50.064C171.517 50.064 171.135 50.2273 170.845 50.554C170.556 50.8807 170.393 51.3473 170.355 51.954H173.617C173.589 51.3287 173.431 50.8573 173.141 50.54C172.852 50.2227 172.469 50.064 171.993 50.064ZM180.526 56V52.962H177.32V56H176.158V49.056H177.32V52.038H180.526V49.056H181.674V56H180.526ZM185.828 50.064V56H184.666V50.064H182.496V49.07H188.012V50.064H185.828ZM193.213 56V52.962H190.007V56H188.845V49.056H190.007V52.038H193.213V49.056H194.361V56H193.213ZM202.282 56V49.07H203.444V56H202.282ZM200.28 53.858C200.28 53.5967 200.182 53.3587 199.986 53.144C199.79 52.9293 199.468 52.822 199.02 52.822L197.102 52.808V54.936H199.02C199.421 54.936 199.729 54.8473 199.944 54.67C200.168 54.4833 200.28 54.2127 200.28 53.858ZM197.116 51.758H199.062C199.454 51.758 199.799 51.814 200.098 51.926C200.406 52.0287 200.658 52.1733 200.854 52.36C201.059 52.5467 201.213 52.7707 201.316 53.032C201.419 53.284 201.47 53.5593 201.47 53.858C201.47 54.502 201.26 55.02 200.84 55.412C200.429 55.804 199.832 56 199.048 56H195.954V49.056H197.116V51.758ZM206.039 52.92V53.032C206.039 53.3027 206.076 53.5593 206.151 53.802C206.226 54.0447 206.338 54.2593 206.487 54.446C206.636 54.6233 206.823 54.7633 207.047 54.866C207.271 54.9687 207.532 55.02 207.831 55.02C208.055 55.02 208.312 54.964 208.601 54.852C208.9 54.74 209.166 54.5767 209.399 54.362L210.141 55.188C209.814 55.5053 209.446 55.734 209.035 55.874C208.624 56.014 208.204 56.084 207.775 56.084C207.42 56.084 207.066 56.0373 206.711 55.944C206.366 55.8413 206.053 55.6593 205.773 55.398C205.493 55.1367 205.264 54.7773 205.087 54.32C204.919 53.8627 204.835 53.2747 204.835 52.556C204.835 51.8747 204.924 51.3053 205.101 50.848C205.278 50.3813 205.507 50.0127 205.787 49.742C206.067 49.462 206.38 49.266 206.725 49.154C207.07 49.0327 207.406 48.972 207.733 48.972C208.116 48.972 208.475 49.042 208.811 49.182C209.147 49.3127 209.441 49.5087 209.693 49.77C209.945 50.0313 210.141 50.3533 210.281 50.736C210.43 51.1093 210.505 51.5387 210.505 52.024V52.92H206.039ZM207.677 50.064C207.201 50.064 206.818 50.2273 206.529 50.554C206.24 50.8807 206.076 51.3473 206.039 51.954H209.301C209.273 51.3287 209.114 50.8573 208.825 50.54C208.536 50.2227 208.153 50.064 207.677 50.064ZM219.984 55.104C219.685 55.4027 219.349 55.6407 218.976 55.818C218.603 55.9953 218.178 56.084 217.702 56.084C217.301 56.084 216.909 56.0187 216.526 55.888C216.153 55.7573 215.817 55.552 215.518 55.272C215.229 54.9827 214.995 54.614 214.818 54.166C214.641 53.718 214.552 53.1767 214.552 52.542C214.552 51.898 214.641 51.352 214.818 50.904C214.995 50.456 215.229 50.092 215.518 49.812C215.817 49.5227 216.153 49.3127 216.526 49.182C216.909 49.0513 217.301 48.986 217.702 48.986C218.169 48.986 218.589 49.0747 218.962 49.252C219.335 49.4293 219.671 49.6627 219.97 49.952L219.228 50.792C219.041 50.5773 218.817 50.4093 218.556 50.288C218.295 50.1573 218.029 50.092 217.758 50.092C217.105 50.092 216.596 50.2927 216.232 50.694C215.877 51.0953 215.7 51.7113 215.7 52.542C215.7 53.3633 215.877 53.9793 216.232 54.39C216.596 54.7913 217.105 54.992 217.758 54.992C218.057 54.992 218.332 54.922 218.584 54.782C218.845 54.6327 219.06 54.4647 219.228 54.278L219.984 55.104ZM223.535 50.064V56H222.373V50.064H220.203V49.07H225.719V50.064H223.535ZM228.988 48.986C229.362 48.986 229.716 49.0233 230.052 49.098C230.398 49.1633 230.696 49.28 230.948 49.448C231.21 49.616 231.415 49.8447 231.564 50.134C231.714 50.4233 231.788 50.7873 231.788 51.226V56H230.626V55.398L230.612 55.384C230.482 55.5893 230.248 55.7573 229.912 55.888C229.576 56.0187 229.17 56.084 228.694 56.084C227.901 56.084 227.29 55.8927 226.86 55.51C226.44 55.118 226.23 54.6233 226.23 54.026C226.23 53.7553 226.277 53.4987 226.37 53.256C226.464 53.004 226.599 52.7847 226.776 52.598C226.963 52.4113 227.192 52.262 227.462 52.15C227.742 52.038 228.069 51.982 228.442 51.982H230.626V51.198C230.626 50.8153 230.5 50.5307 230.248 50.344C229.996 50.1573 229.59 50.064 229.03 50.064C228.592 50.064 228.246 50.12 227.994 50.232C227.742 50.3347 227.537 50.4793 227.378 50.666L226.65 49.896C226.912 49.5973 227.248 49.3733 227.658 49.224C228.069 49.0653 228.512 48.986 228.988 48.986ZM227.322 53.956C227.322 54.2827 227.444 54.544 227.686 54.74C227.938 54.936 228.321 55.034 228.834 55.034C229.058 55.034 229.278 55.0153 229.492 54.978C229.707 54.9407 229.898 54.8753 230.066 54.782C230.234 54.6793 230.37 54.5487 230.472 54.39C230.575 54.222 230.626 54.0073 230.626 53.746V52.934H228.722C228.274 52.934 227.929 53.0227 227.686 53.2C227.444 53.3773 227.322 53.6293 227.322 53.956ZM238.822 53.956C238.822 54.2547 238.761 54.53 238.64 54.782C238.528 55.0247 238.369 55.2393 238.164 55.426C237.968 55.6033 237.735 55.7433 237.464 55.846C237.193 55.9487 236.909 56 236.61 56H233.306V49.056H236.302C236.694 49.056 237.035 49.1073 237.324 49.21C237.623 49.3033 237.87 49.4387 238.066 49.616C238.262 49.784 238.407 49.9847 238.5 50.218C238.603 50.4513 238.654 50.7033 238.654 50.974C238.654 51.2447 238.579 51.5107 238.43 51.772C238.29 52.0333 238.043 52.2433 237.688 52.402C238.099 52.5327 238.388 52.7427 238.556 53.032C238.733 53.3213 238.822 53.6293 238.822 53.956ZM234.468 52.906V54.936H236.344C236.792 54.936 237.123 54.838 237.338 54.642C237.562 54.446 237.674 54.2127 237.674 53.942C237.674 53.6713 237.562 53.4333 237.338 53.228C237.123 53.0133 236.792 52.906 236.344 52.906H234.468ZM234.468 50.064V51.996H236.176C236.661 51.996 237.002 51.9027 237.198 51.716C237.394 51.52 237.492 51.2867 237.492 51.016C237.492 50.7453 237.385 50.5213 237.17 50.344C236.955 50.1573 236.624 50.064 236.176 50.064H234.468ZM239.921 56V49.056H241.083V52.066H242.287C242.417 52.066 242.548 52.0567 242.679 52.038C242.809 52.0193 242.931 51.9773 243.043 51.912C243.164 51.8373 243.271 51.7347 243.365 51.604C243.467 51.464 243.551 51.282 243.617 51.058L244.233 49.056H245.381L244.751 51.072C244.648 51.408 244.517 51.6927 244.359 51.926C244.2 52.15 243.99 52.2993 243.729 52.374C244.055 52.4487 244.293 52.612 244.443 52.864C244.592 53.1067 244.718 53.4007 244.821 53.746L245.507 56H244.331L243.785 54.082C243.635 53.634 243.453 53.3447 243.239 53.214C243.024 53.074 242.758 53.004 242.441 53.004H241.083V56H239.921ZM247.841 54.11L248.807 52.696L251.383 49.056H252.349V56H251.173V51.072L251.117 51.086L250.193 52.416L247.715 56H246.609V49.056H247.771V54.11H247.841ZM254.803 57.582H254.089L254.537 56H254.145V54.446H255.587V55.972L254.803 57.582ZM60.982 66.064L60.898 67.968C60.8607 68.696 60.8093 69.3027 60.744 69.788C60.688 70.264 60.5573 70.6607 60.352 70.978H63.684V66.064H60.982ZM58.91 70.964C59.0967 70.8427 59.246 70.7073 59.358 70.558C59.47 70.3993 59.554 70.208 59.61 69.984C59.6753 69.7507 59.722 69.4753 59.75 69.158C59.778 68.8407 59.806 68.458 59.834 68.01L59.974 65.056H64.86V70.978H65.574V73.89H64.44V72H59.344V73.89H58.21V71.09L58.91 70.964ZM67.5977 68.92V69.032C67.5977 69.3027 67.635 69.5593 67.7097 69.802C67.7843 70.0447 67.8963 70.2593 68.0457 70.446C68.195 70.6233 68.3817 70.7633 68.6057 70.866C68.8297 70.9687 69.091 71.02 69.3897 71.02C69.6137 71.02 69.8703 70.964 70.1597 70.852C70.4583 70.74 70.7243 70.5767 70.9577 70.362L71.6997 71.188C71.373 71.5053 71.0043 71.734 70.5937 71.874C70.183 72.014 69.763 72.084 69.3337 72.084C68.979 72.084 68.6243 72.0373 68.2697 71.944C67.9243 71.8413 67.6117 71.6593 67.3317 71.398C67.0517 71.1367 66.823 70.7773 66.6457 70.32C66.4777 69.8627 66.3937 69.2747 66.3937 68.556C66.3937 67.8747 66.4823 67.3053 66.6597 66.848C66.837 66.3813 67.0657 66.0127 67.3457 65.742C67.6257 65.462 67.9383 65.266 68.2837 65.154C68.629 65.0327 68.965 64.972 69.2917 64.972C69.6743 64.972 70.0337 65.042 70.3697 65.182C70.7057 65.3127 70.9997 65.5087 71.2517 65.77C71.5037 66.0313 71.6997 66.3533 71.8397 66.736C71.989 67.1093 72.0637 67.5387 72.0637 68.024V68.92H67.5977ZM69.2357 66.064C68.7597 66.064 68.377 66.2273 68.0877 66.554C67.7983 66.8807 67.635 67.3473 67.5977 67.954H70.8597C70.8317 67.3287 70.673 66.8573 70.3837 66.54C70.0943 66.2227 69.7117 66.064 69.2357 66.064ZM75.3179 62.242C75.3272 62.3353 75.3552 62.4333 75.4019 62.536C75.4486 62.6387 75.5139 62.7367 75.5979 62.83C75.6819 62.914 75.7846 62.984 75.9059 63.04C76.0272 63.096 76.1626 63.124 76.3119 63.124C76.4799 63.124 76.6246 63.096 76.7459 63.04C76.8766 62.984 76.9839 62.914 77.0679 62.83C77.1519 62.7367 77.2126 62.6387 77.2499 62.536C77.2966 62.4333 77.3199 62.3353 77.3199 62.242H78.3139C78.2952 62.4287 78.2532 62.6293 78.1879 62.844C78.1226 63.0493 78.0106 63.2407 77.8519 63.418C77.7026 63.5953 77.5019 63.7447 77.2499 63.866C77.0072 63.9873 76.6946 64.048 76.3119 64.048C75.9292 64.048 75.6072 63.9873 75.3459 63.866C75.0939 63.7447 74.8886 63.5953 74.7299 63.418C74.5806 63.2407 74.4686 63.0493 74.3939 62.844C74.3286 62.6293 74.2959 62.4287 74.2959 62.242H75.3179ZM74.6459 70.11L75.6119 68.696L78.1879 65.056H79.1539V72H77.9779V67.072L77.9219 67.086L76.9979 68.416L74.5199 72H73.4139V65.056H74.5759V70.11H74.6459ZM85.822 71.104C85.5234 71.4027 85.1874 71.6407 84.814 71.818C84.4407 71.9953 84.016 72.084 83.54 72.084C83.1387 72.084 82.7467 72.0187 82.364 71.888C81.9907 71.7573 81.6547 71.552 81.356 71.272C81.0667 70.9827 80.8334 70.614 80.656 70.166C80.4787 69.718 80.39 69.1767 80.39 68.542C80.39 67.898 80.4787 67.352 80.656 66.904C80.8334 66.456 81.0667 66.092 81.356 65.812C81.6547 65.5227 81.9907 65.3127 82.364 65.182C82.7467 65.0513 83.1387 64.986 83.54 64.986C84.0067 64.986 84.4267 65.0747 84.8 65.252C85.1734 65.4293 85.5094 65.6627 85.808 65.952L85.066 66.792C84.8794 66.5773 84.6554 66.4093 84.394 66.288C84.1327 66.1573 83.8667 66.092 83.596 66.092C82.9427 66.092 82.434 66.2927 82.07 66.694C81.7154 67.0953 81.538 67.7113 81.538 68.542C81.538 69.3633 81.7154 69.9793 82.07 70.39C82.434 70.7913 82.9427 70.992 83.596 70.992C83.8947 70.992 84.17 70.922 84.422 70.782C84.6834 70.6327 84.898 70.4647 85.066 70.278L85.822 71.104ZM89.3733 66.064V72H88.2113V66.064H86.0413V65.07H91.5573V66.064H89.3733ZM97.9061 69.956C97.9061 70.2547 97.8455 70.53 97.7241 70.782C97.6121 71.0247 97.4535 71.2393 97.2481 71.426C97.0521 71.6033 96.8188 71.7433 96.5481 71.846C96.2775 71.9487 95.9928 72 95.6941 72H92.3901V65.056H95.3861C95.7781 65.056 96.1188 65.1073 96.4081 65.21C96.7068 65.3033 96.9541 65.4387 97.1501 65.616C97.3461 65.784 97.4908 65.9847 97.5841 66.218C97.6868 66.4513 97.7381 66.7033 97.7381 66.974C97.7381 67.2447 97.6635 67.5107 97.5141 67.772C97.3741 68.0333 97.1268 68.2433 96.7721 68.402C97.1828 68.5327 97.4721 68.7427 97.6401 69.032C97.8175 69.3213 97.9061 69.6293 97.9061 69.956ZM93.5521 68.906V70.936H95.4281C95.8761 70.936 96.2075 70.838 96.4221 70.642C96.6461 70.446 96.7581 70.2127 96.7581 69.942C96.7581 69.6713 96.6461 69.4333 96.4221 69.228C96.2075 69.0133 95.8761 68.906 95.4281 68.906H93.5521ZM93.5521 66.064V67.996H95.2601C95.7455 67.996 96.0861 67.9027 96.2821 67.716C96.4781 67.52 96.5761 67.2867 96.5761 67.016C96.5761 66.7453 96.4688 66.5213 96.2541 66.344C96.0395 66.1573 95.7081 66.064 95.2601 66.064H93.5521ZM101.455 73.47C101.352 73.75 101.235 73.9787 101.105 74.156C100.974 74.3333 100.829 74.4687 100.671 74.562C100.512 74.6553 100.344 74.716 100.167 74.744C99.9894 74.7813 99.8074 74.8 99.6207 74.8H99.0327V73.792H99.6067C99.7934 73.792 99.9567 73.736 100.097 73.624C100.246 73.512 100.372 73.3067 100.475 73.008L100.853 71.86L98.3047 65.056H99.5787L100.685 68.206L101.399 70.39H101.441L102.155 68.22L103.233 65.056H104.437L101.455 73.47ZM105.283 65.07H106.431V68.038H107.397C107.425 67.4687 107.528 66.9787 107.705 66.568C107.92 66.064 108.233 65.6767 108.643 65.406C109.063 65.1353 109.553 65 110.113 65C110.589 65 111.019 65.0887 111.401 65.266C111.793 65.434 112.101 65.7047 112.325 66.078C112.512 66.3767 112.638 66.7407 112.703 67.17C112.778 67.59 112.815 68.0613 112.815 68.584C112.815 69.0507 112.783 69.4707 112.717 69.844C112.661 70.2173 112.554 70.5393 112.395 70.81C112.153 71.258 111.821 71.5847 111.401 71.79C110.991 71.986 110.552 72.084 110.085 72.084C109.609 72.084 109.185 71.9953 108.811 71.818C108.438 71.6407 108.139 71.3793 107.915 71.034C107.775 70.8193 107.659 70.53 107.565 70.166C107.472 69.7927 107.416 69.3913 107.397 68.962H106.431V72H105.283V65.07ZM110.113 66.036C109.787 66.036 109.507 66.1247 109.273 66.302C109.049 66.47 108.872 66.708 108.741 67.016C108.685 67.1467 108.634 67.3613 108.587 67.66C108.55 67.9587 108.531 68.262 108.531 68.57C108.531 68.878 108.55 69.172 108.587 69.452C108.625 69.7227 108.676 69.9327 108.741 70.082C108.872 70.3807 109.049 70.614 109.273 70.782C109.507 70.95 109.787 71.034 110.113 71.034C110.459 71.034 110.757 70.9407 111.009 70.754C111.271 70.5673 111.457 70.2593 111.569 69.83C111.616 69.662 111.644 69.4753 111.653 69.27C111.663 69.0553 111.667 68.8173 111.667 68.556C111.667 68.2293 111.653 67.9353 111.625 67.674C111.607 67.4127 111.56 67.1887 111.485 67.002C111.355 66.6567 111.168 66.4093 110.925 66.26C110.692 66.1107 110.421 66.036 110.113 66.036ZM123.419 72H114.389V65.056H115.565V70.936H118.365V65.056H119.527V70.936H122.355V65.056H123.517V70.95H124.553V73.89H123.419V72ZM126.886 70.11L127.852 68.696L130.428 65.056H131.394V72H130.218V67.072L130.162 67.086L129.238 68.416L126.76 72H125.654V65.056H126.816V70.11H126.886ZM133.988 68.92V69.032C133.988 69.3027 134.026 69.5593 134.1 69.802C134.175 70.0447 134.287 70.2593 134.436 70.446C134.586 70.6233 134.772 70.7633 134.996 70.866C135.22 70.9687 135.482 71.02 135.78 71.02C136.004 71.02 136.261 70.964 136.55 70.852C136.849 70.74 137.115 70.5767 137.348 70.362L138.09 71.188C137.764 71.5053 137.395 71.734 136.984 71.874C136.574 72.014 136.154 72.084 135.724 72.084C135.37 72.084 135.015 72.0373 134.66 71.944C134.315 71.8413 134.002 71.6593 133.722 71.398C133.442 71.1367 133.214 70.7773 133.036 70.32C132.868 69.8627 132.784 69.2747 132.784 68.556C132.784 67.8747 132.873 67.3053 133.05 66.848C133.228 66.3813 133.456 66.0127 133.736 65.742C134.016 65.462 134.329 65.266 134.674 65.154C135.02 65.0327 135.356 64.972 135.682 64.972C136.065 64.972 136.424 65.042 136.76 65.182C137.096 65.3127 137.39 65.5087 137.642 65.77C137.894 66.0313 138.09 66.3533 138.23 66.736C138.38 67.1093 138.454 67.5387 138.454 68.024V68.92H133.988ZM135.626 66.064C135.15 66.064 134.768 66.2273 134.478 66.554C134.189 66.8807 134.026 67.3473 133.988 67.954H137.25C137.222 67.3287 137.064 66.8573 136.774 66.54C136.485 66.2227 136.102 66.064 135.626 66.064ZM147.289 72V68.962H144.083V72H142.921V65.056H144.083V68.038H147.289V65.056H148.437V72H147.289ZM152.494 64.986C152.867 64.986 153.222 65.0233 153.558 65.098C153.903 65.1633 154.202 65.28 154.454 65.448C154.715 65.616 154.921 65.8447 155.07 66.134C155.219 66.4233 155.294 66.7873 155.294 67.226V72H154.132V71.398L154.118 71.384C153.987 71.5893 153.754 71.7573 153.418 71.888C153.082 72.0187 152.676 72.084 152.2 72.084C151.407 72.084 150.795 71.8927 150.366 71.51C149.946 71.118 149.736 70.6233 149.736 70.026C149.736 69.7553 149.783 69.4987 149.876 69.256C149.969 69.004 150.105 68.7847 150.282 68.598C150.469 68.4113 150.697 68.262 150.968 68.15C151.248 68.038 151.575 67.982 151.948 67.982H154.132V67.198C154.132 66.8153 154.006 66.5307 153.754 66.344C153.502 66.1573 153.096 66.064 152.536 66.064C152.097 66.064 151.752 66.12 151.5 66.232C151.248 66.3347 151.043 66.4793 150.884 66.666L150.156 65.896C150.417 65.5973 150.753 65.3733 151.164 65.224C151.575 65.0653 152.018 64.986 152.494 64.986ZM150.828 69.956C150.828 70.2827 150.949 70.544 151.192 70.74C151.444 70.936 151.827 71.034 152.34 71.034C152.564 71.034 152.783 71.0153 152.998 70.978C153.213 70.9407 153.404 70.8753 153.572 70.782C153.74 70.6793 153.875 70.5487 153.978 70.39C154.081 70.222 154.132 70.0073 154.132 69.746V68.934H152.228C151.78 68.934 151.435 69.0227 151.192 69.2C150.949 69.3773 150.828 69.6293 150.828 69.956ZM165.669 72V67.534C165.594 67.6927 165.52 67.8467 165.445 67.996C165.37 68.136 165.296 68.2807 165.221 68.43L163.877 71.006H162.925L161.539 68.36L161.119 67.52V72H159.957V65.056H161.077L162.715 68.346C162.846 68.598 162.962 68.8453 163.065 69.088C163.177 69.3307 163.298 69.578 163.429 69.83C163.55 69.5967 163.662 69.3493 163.765 69.088C163.877 68.8267 163.994 68.5793 164.115 68.346L165.739 65.056H166.831V72H165.669ZM171.344 65C171.848 65 172.296 65.1027 172.688 65.308C173.08 65.504 173.397 65.7887 173.64 66.162C173.799 66.414 173.915 66.722 173.99 67.086C174.074 67.4407 174.116 67.842 174.116 68.29C174.116 68.8873 174.083 69.3913 174.018 69.802C173.953 70.2033 173.841 70.5393 173.682 70.81C173.439 71.2207 173.099 71.538 172.66 71.762C172.231 71.9767 171.741 72.084 171.19 72.084C170.686 72.084 170.238 72 169.846 71.832C169.454 71.6547 169.137 71.3887 168.894 71.034C168.707 70.7447 168.572 70.3993 168.488 69.998C168.413 69.5967 168.376 69.116 168.376 68.556C168.376 68.164 168.399 67.8047 168.446 67.478C168.502 67.142 168.595 66.8387 168.726 66.568C168.959 66.064 169.3 65.6767 169.748 65.406C170.205 65.1353 170.737 65 171.344 65ZM171.302 66.036C170.957 66.036 170.649 66.1247 170.378 66.302C170.117 66.47 169.916 66.708 169.776 67.016C169.673 67.2307 169.608 67.4687 169.58 67.73C169.552 67.982 169.533 68.262 169.524 68.57C169.524 68.878 169.533 69.158 169.552 69.41C169.58 69.6527 169.641 69.8767 169.734 70.082C169.865 70.3807 170.056 70.614 170.308 70.782C170.56 70.95 170.859 71.034 171.204 71.034C171.577 71.034 171.909 70.936 172.198 70.74C172.497 70.544 172.711 70.2313 172.842 69.802C172.889 69.634 172.917 69.4427 172.926 69.228C172.945 69.004 172.954 68.7053 172.954 68.332C172.954 68.0613 172.94 67.8233 172.912 67.618C172.893 67.4033 172.847 67.212 172.772 67.044C172.641 66.6987 172.445 66.4467 172.184 66.288C171.923 66.12 171.629 66.036 171.302 66.036ZM181.392 72V67.534C181.317 67.6927 181.242 67.8467 181.168 67.996C181.093 68.136 181.018 68.2807 180.944 68.43L179.6 71.006H178.648L177.262 68.36L176.842 67.52V72H175.68V65.056H176.8L178.438 68.346C178.568 68.598 178.685 68.8453 178.788 69.088C178.9 69.3307 179.021 69.578 179.152 69.83C179.273 69.5967 179.385 69.3493 179.488 69.088C179.6 68.8267 179.716 68.5793 179.838 68.346L181.462 65.056H182.554V72H181.392ZM185.135 68.92V69.032C185.135 69.3027 185.172 69.5593 185.247 69.802C185.321 70.0447 185.433 70.2593 185.583 70.446C185.732 70.6233 185.919 70.7633 186.143 70.866C186.367 70.9687 186.628 71.02 186.927 71.02C187.151 71.02 187.407 70.964 187.697 70.852C187.995 70.74 188.261 70.5767 188.495 70.362L189.237 71.188C188.91 71.5053 188.541 71.734 188.131 71.874C187.72 72.014 187.3 72.084 186.871 72.084C186.516 72.084 186.161 72.0373 185.807 71.944C185.461 71.8413 185.149 71.6593 184.869 71.398C184.589 71.1367 184.36 70.7773 184.183 70.32C184.015 69.8627 183.931 69.2747 183.931 68.556C183.931 67.8747 184.019 67.3053 184.197 66.848C184.374 66.3813 184.603 66.0127 184.883 65.742C185.163 65.462 185.475 65.266 185.821 65.154C186.166 65.0327 186.502 64.972 186.829 64.972C187.211 64.972 187.571 65.042 187.907 65.182C188.243 65.3127 188.537 65.5087 188.789 65.77C189.041 66.0313 189.237 66.3533 189.377 66.736C189.526 67.1093 189.601 67.5387 189.601 68.024V68.92H185.135ZM186.773 66.064C186.297 66.064 185.914 66.2273 185.625 66.554C185.335 66.8807 185.172 67.3473 185.135 67.954H188.397C188.369 67.3287 188.21 66.8573 187.921 66.54C187.631 66.2227 187.249 66.064 186.773 66.064ZM195.305 72V68.962H192.099V72H190.937V65.056H192.099V68.038H195.305V65.056H196.453V72H195.305ZM200.608 66.064V72H199.446V66.064H197.276V65.07H202.792V66.064H200.608ZM211.137 72V66.064H207.931V72H206.783V65.056H212.285V72H211.137ZM215.053 65.056V65.826L215.095 65.84C215.366 65.532 215.66 65.3127 215.977 65.182C216.304 65.0513 216.64 64.986 216.985 64.986C217.48 64.986 217.886 65.0887 218.203 65.294C218.53 65.49 218.786 65.756 218.973 66.092C219.16 66.4187 219.286 66.792 219.351 67.212C219.426 67.6227 219.463 68.0427 219.463 68.472C219.463 68.92 219.426 69.3633 219.351 69.802C219.276 70.2313 219.136 70.614 218.931 70.95C218.726 71.286 218.446 71.5613 218.091 71.776C217.746 71.9813 217.302 72.084 216.761 72.084C216.416 72.084 216.098 72.028 215.809 71.916C215.529 71.804 215.286 71.6267 215.081 71.384H215.053V74.772H213.905V65.056H215.053ZM215.053 68.542C215.053 68.8033 215.067 69.0787 215.095 69.368C215.132 69.648 215.202 69.9047 215.305 70.138C215.417 70.3713 215.576 70.5627 215.781 70.712C215.986 70.8613 216.266 70.936 216.621 70.936C216.985 70.936 217.274 70.866 217.489 70.726C217.704 70.5767 217.867 70.39 217.979 70.166C218.091 69.9327 218.166 69.676 218.203 69.396C218.24 69.1067 218.259 68.822 218.259 68.542C218.259 68.2713 218.245 67.996 218.217 67.716C218.189 67.4267 218.124 67.1653 218.021 66.932C217.918 66.6893 217.76 66.4933 217.545 66.344C217.34 66.1947 217.055 66.12 216.691 66.12C216.336 66.12 216.052 66.1993 215.837 66.358C215.622 66.5167 215.454 66.7173 215.333 66.96C215.221 67.1933 215.146 67.4547 215.109 67.744C215.072 68.024 215.053 68.29 215.053 68.542ZM223.789 65C224.293 65 224.741 65.1027 225.133 65.308C225.525 65.504 225.843 65.7887 226.085 66.162C226.244 66.414 226.361 66.722 226.435 67.086C226.519 67.4407 226.561 67.842 226.561 68.29C226.561 68.8873 226.529 69.3913 226.463 69.802C226.398 70.2033 226.286 70.5393 226.127 70.81C225.885 71.2207 225.544 71.538 225.105 71.762C224.676 71.9767 224.186 72.084 223.635 72.084C223.131 72.084 222.683 72 222.291 71.832C221.899 71.6547 221.582 71.3887 221.339 71.034C221.153 70.7447 221.017 70.3993 220.933 69.998C220.859 69.5967 220.821 69.116 220.821 68.556C220.821 68.164 220.845 67.8047 220.891 67.478C220.947 67.142 221.041 66.8387 221.171 66.568C221.405 66.064 221.745 65.6767 222.193 65.406C222.651 65.1353 223.183 65 223.789 65ZM223.747 66.036C223.402 66.036 223.094 66.1247 222.823 66.302C222.562 66.47 222.361 66.708 222.221 67.016C222.119 67.2307 222.053 67.4687 222.025 67.73C221.997 67.982 221.979 68.262 221.969 68.57C221.969 68.878 221.979 69.158 221.997 69.41C222.025 69.6527 222.086 69.8767 222.179 70.082C222.31 70.3807 222.501 70.614 222.753 70.782C223.005 70.95 223.304 71.034 223.649 71.034C224.023 71.034 224.354 70.936 224.643 70.74C224.942 70.544 225.157 70.2313 225.287 69.802C225.334 69.634 225.362 69.4427 225.371 69.228C225.39 69.004 225.399 68.7053 225.399 68.332C225.399 68.0613 225.385 67.8233 225.357 67.618C225.339 67.4033 225.292 67.212 225.217 67.044C225.087 66.6987 224.891 66.4467 224.629 66.288C224.368 66.12 224.074 66.036 223.747 66.036ZM233.627 69.956C233.627 70.2547 233.566 70.53 233.445 70.782C233.333 71.0247 233.174 71.2393 232.969 71.426C232.773 71.6033 232.539 71.7433 232.269 71.846C231.998 71.9487 231.713 72 231.415 72H228.111V65.056H231.107C231.499 65.056 231.839 65.1073 232.129 65.21C232.427 65.3033 232.675 65.4387 232.871 65.616C233.067 65.784 233.211 65.9847 233.305 66.218C233.407 66.4513 233.459 66.7033 233.459 66.974C233.459 67.2447 233.384 67.5107 233.235 67.772C233.095 68.0333 232.847 68.2433 232.493 68.402C232.903 68.5327 233.193 68.7427 233.361 69.032C233.538 69.3213 233.627 69.6293 233.627 69.956ZM229.273 68.906V70.936H231.149C231.597 70.936 231.928 70.838 232.143 70.642C232.367 70.446 232.479 70.2127 232.479 69.942C232.479 69.6713 232.367 69.4333 232.143 69.228C231.928 69.0133 231.597 68.906 231.149 68.906H229.273ZM229.273 66.064V67.996H230.981C231.466 67.996 231.807 67.9027 232.003 67.716C232.199 67.52 232.297 67.2867 232.297 67.016C232.297 66.7453 232.189 66.5213 231.975 66.344C231.76 66.1573 231.429 66.064 230.981 66.064H229.273ZM235.775 68.92V69.032C235.775 69.3027 235.813 69.5593 235.887 69.802C235.962 70.0447 236.074 70.2593 236.223 70.446C236.373 70.6233 236.559 70.7633 236.783 70.866C237.007 70.9687 237.269 71.02 237.567 71.02C237.791 71.02 238.048 70.964 238.337 70.852C238.636 70.74 238.902 70.5767 239.135 70.362L239.877 71.188C239.551 71.5053 239.182 71.734 238.771 71.874C238.361 72.014 237.941 72.084 237.511 72.084C237.157 72.084 236.802 72.0373 236.447 71.944C236.102 71.8413 235.789 71.6593 235.509 71.398C235.229 71.1367 235.001 70.7773 234.823 70.32C234.655 69.8627 234.571 69.2747 234.571 68.556C234.571 67.8747 234.66 67.3053 234.837 66.848C235.015 66.3813 235.243 66.0127 235.523 65.742C235.803 65.462 236.116 65.266 236.461 65.154C236.807 65.0327 237.143 64.972 237.469 64.972C237.852 64.972 238.211 65.042 238.547 65.182C238.883 65.3127 239.177 65.5087 239.429 65.77C239.681 66.0313 239.877 66.3533 240.017 66.736C240.167 67.1093 240.241 67.5387 240.241 68.024V68.92H235.775ZM237.413 66.064C236.937 66.064 236.555 66.2273 236.265 66.554C235.976 66.8807 235.813 67.3473 235.775 67.954H239.037C239.009 67.3287 238.851 66.8573 238.561 66.54C238.272 66.2227 237.889 66.064 237.413 66.064ZM243.748 66.064L243.664 67.968C243.626 68.696 243.575 69.3027 243.51 69.788C243.454 70.264 243.323 70.6607 243.118 70.978H246.45V66.064H243.748ZM241.676 70.964C241.862 70.8427 242.012 70.7073 242.124 70.558C242.236 70.3993 242.32 70.208 242.376 69.984C242.441 69.7507 242.488 69.4753 242.516 69.158C242.544 68.8407 242.572 68.458 242.6 68.01L242.74 65.056H247.626V70.978H248.34V73.89H247.206V72H242.11V73.89H240.976V71.09L241.676 70.964ZM250.363 68.92V69.032C250.363 69.3027 250.401 69.5593 250.475 69.802C250.55 70.0447 250.662 70.2593 250.811 70.446C250.961 70.6233 251.147 70.7633 251.371 70.866C251.595 70.9687 251.857 71.02 252.155 71.02C252.379 71.02 252.636 70.964 252.925 70.852C253.224 70.74 253.49 70.5767 253.723 70.362L254.465 71.188C254.139 71.5053 253.77 71.734 253.359 71.874C252.949 72.014 252.529 72.084 252.099 72.084C251.745 72.084 251.39 72.0373 251.035 71.944C250.69 71.8413 250.377 71.6593 250.097 71.398C249.817 71.1367 249.589 70.7773 249.411 70.32C249.243 69.8627 249.159 69.2747 249.159 68.556C249.159 67.8747 249.248 67.3053 249.425 66.848C249.603 66.3813 249.831 66.0127 250.111 65.742C250.391 65.462 250.704 65.266 251.049 65.154C251.395 65.0327 251.731 64.972 252.057 64.972C252.44 64.972 252.799 65.042 253.135 65.182C253.471 65.3127 253.765 65.5087 254.017 65.77C254.269 66.0313 254.465 66.3533 254.605 66.736C254.755 67.1093 254.829 67.5387 254.829 68.024V68.92H250.363ZM252.001 66.064C251.525 66.064 251.143 66.2273 250.853 66.554C250.564 66.8807 250.401 67.3473 250.363 67.954H253.625C253.597 67.3287 253.439 66.8573 253.149 66.54C252.86 66.2227 252.477 66.064 252.001 66.064ZM260.534 72V68.962H257.328V72H256.166V65.056H257.328V68.038H260.534V65.056H261.682V72H260.534ZM264.548 70.11L265.514 68.696L268.09 65.056H269.056V72H267.88V67.072L267.824 67.086L266.9 68.416L264.422 72H263.316V65.056H264.478V70.11H264.548ZM270.544 67.212C270.544 66.9133 270.596 66.6333 270.698 66.372C270.801 66.1107 270.946 65.8867 271.132 65.7C271.319 65.504 271.543 65.35 271.804 65.238C272.075 65.126 272.374 65.07 272.7 65.07H276.004V72H274.856V69.13H273.344C273.195 69.1393 273.046 69.1627 272.896 69.2C272.747 69.2373 272.602 69.298 272.462 69.382C272.332 69.466 272.215 69.578 272.112 69.718C272.01 69.858 271.935 70.04 271.888 70.264L271.51 72H270.306L270.754 70.124C270.82 69.844 270.922 69.5967 271.062 69.382C271.212 69.158 271.464 68.9853 271.818 68.864C271.342 68.7613 271.011 68.5513 270.824 68.234C270.638 67.9167 270.544 67.576 270.544 67.212ZM271.692 67.184C271.692 67.5387 271.823 67.8 272.084 67.968C272.346 68.1267 272.672 68.206 273.064 68.206H274.856V66.078H272.882C272.733 66.078 272.584 66.1013 272.434 66.148C272.294 66.1947 272.168 66.2647 272.056 66.358C271.944 66.4513 271.856 66.568 271.79 66.708C271.725 66.848 271.692 67.0067 271.692 67.184ZM59.932 81.056V81.826L59.974 81.84C60.2447 81.532 60.5387 81.3127 60.856 81.182C61.1827 81.0513 61.5187 80.986 61.864 80.986C62.3587 80.986 62.7647 81.0887 63.082 81.294C63.4087 81.49 63.6653 81.756 63.852 82.092C64.0387 82.4187 64.1647 82.792 64.23 83.212C64.3047 83.6227 64.342 84.0427 64.342 84.472C64.342 84.92 64.3047 85.3633 64.23 85.802C64.1553 86.2313 64.0153 86.614 63.81 86.95C63.6047 87.286 63.3247 87.5613 62.97 87.776C62.6247 87.9813 62.1813 88.084 61.64 88.084C61.2947 88.084 60.9773 88.028 60.688 87.916C60.408 87.804 60.1653 87.6267 59.96 87.384H59.932V90.772H58.784V81.056H59.932ZM59.932 84.542C59.932 84.8033 59.946 85.0787 59.974 85.368C60.0113 85.648 60.0813 85.9047 60.184 86.138C60.296 86.3713 60.4547 86.5627 60.66 86.712C60.8653 86.8613 61.1453 86.936 61.5 86.936C61.864 86.936 62.1533 86.866 62.368 86.726C62.5827 86.5767 62.746 86.39 62.858 86.166C62.97 85.9327 63.0447 85.676 63.082 85.396C63.1193 85.1067 63.138 84.822 63.138 84.542C63.138 84.2713 63.124 83.996 63.096 83.716C63.068 83.4267 63.0027 83.1653 62.9 82.932C62.7973 82.6893 62.6387 82.4933 62.424 82.344C62.2187 82.1947 61.934 82.12 61.57 82.12C61.2153 82.12 60.9307 82.1993 60.716 82.358C60.5013 82.5167 60.3333 82.7173 60.212 82.96C60.1 83.1933 60.0253 83.4547 59.988 83.744C59.9507 84.024 59.932 84.29 59.932 84.542ZM68.2343 80.986C68.6077 80.986 68.9623 81.0233 69.2983 81.098C69.6437 81.1633 69.9423 81.28 70.1943 81.448C70.4557 81.616 70.661 81.8447 70.8103 82.134C70.9597 82.4233 71.0343 82.7873 71.0343 83.226V88H69.8723V87.398L69.8583 87.384C69.7277 87.5893 69.4943 87.7573 69.1583 87.888C68.8223 88.0187 68.4163 88.084 67.9403 88.084C67.147 88.084 66.5357 87.8927 66.1063 87.51C65.6863 87.118 65.4763 86.6233 65.4763 86.026C65.4763 85.7553 65.523 85.4987 65.6163 85.256C65.7097 85.004 65.845 84.7847 66.0223 84.598C66.209 84.4113 66.4377 84.262 66.7083 84.15C66.9883 84.038 67.315 83.982 67.6883 83.982H69.8723V83.198C69.8723 82.8153 69.7463 82.5307 69.4943 82.344C69.2423 82.1573 68.8363 82.064 68.2763 82.064C67.8377 82.064 67.4923 82.12 67.2403 82.232C66.9883 82.3347 66.783 82.4793 66.6243 82.666L65.8963 81.896C66.1577 81.5973 66.4937 81.3733 66.9043 81.224C67.315 81.0653 67.7583 80.986 68.2343 80.986ZM66.5683 85.956C66.5683 86.2827 66.6897 86.544 66.9323 86.74C67.1843 86.936 67.567 87.034 68.0803 87.034C68.3043 87.034 68.5237 87.0153 68.7383 86.978C68.953 86.9407 69.1443 86.8753 69.3123 86.782C69.4803 86.6793 69.6157 86.5487 69.7183 86.39C69.821 86.222 69.8723 86.0073 69.8723 85.746V84.934H67.9683C67.5203 84.934 67.175 85.0227 66.9323 85.2C66.6897 85.3773 66.5683 85.6293 66.5683 85.956ZM77.5642 87.104C77.2656 87.4027 76.9296 87.6407 76.5562 87.818C76.1829 87.9953 75.7582 88.084 75.2822 88.084C74.8809 88.084 74.4889 88.0187 74.1062 87.888C73.7329 87.7573 73.3969 87.552 73.0982 87.272C72.8089 86.9827 72.5756 86.614 72.3982 86.166C72.2209 85.718 72.1322 85.1767 72.1322 84.542C72.1322 83.898 72.2209 83.352 72.3982 82.904C72.5756 82.456 72.8089 82.092 73.0982 81.812C73.3969 81.5227 73.7329 81.3127 74.1062 81.182C74.4889 81.0513 74.8809 80.986 75.2822 80.986C75.7489 80.986 76.1689 81.0747 76.5422 81.252C76.9156 81.4293 77.2516 81.6627 77.5502 81.952L76.8082 82.792C76.6216 82.5773 76.3976 82.4093 76.1362 82.288C75.8749 82.1573 75.6089 82.092 75.3382 82.092C74.6849 82.092 74.1762 82.2927 73.8122 82.694C73.4576 83.0953 73.2802 83.7113 73.2802 84.542C73.2802 85.3633 73.4576 85.9793 73.8122 86.39C74.1762 86.7913 74.6849 86.992 75.3382 86.992C75.6369 86.992 75.9122 86.922 76.1642 86.782C76.4256 86.6327 76.6402 86.4647 76.8082 86.278L77.5642 87.104ZM79.4075 81.042V83.114C79.4075 83.6367 79.5242 83.996 79.7575 84.192C80.0002 84.3787 80.3315 84.472 80.7515 84.472C80.8449 84.472 80.9662 84.4627 81.1155 84.444C81.2742 84.4253 81.4375 84.3927 81.6055 84.346C81.7735 84.2993 81.9462 84.2433 82.1235 84.178C82.3009 84.1033 82.4595 84.0147 82.5995 83.912V81.042H83.7475V88H82.5995V84.99H82.5575C82.2589 85.186 81.9275 85.3353 81.5635 85.438C81.2089 85.5313 80.8822 85.578 80.5835 85.578C80.2382 85.578 79.9209 85.536 79.6315 85.452C79.3515 85.3587 79.1089 85.2187 78.9035 85.032C78.6982 84.836 78.5395 84.5887 78.4275 84.29C78.3155 83.982 78.2595 83.6133 78.2595 83.184V81.042H79.4075ZM86.2871 84.92V85.032C86.2871 85.3027 86.3244 85.5593 86.3991 85.802C86.4738 86.0447 86.5858 86.2593 86.7351 86.446C86.8844 86.6233 87.0711 86.7633 87.2951 86.866C87.5191 86.9687 87.7804 87.02 88.0791 87.02C88.3031 87.02 88.5598 86.964 88.8491 86.852C89.1478 86.74 89.4138 86.5767 89.6471 86.362L90.3891 87.188C90.0624 87.5053 89.6938 87.734 89.2831 87.874C88.8724 88.014 88.4524 88.084 88.0231 88.084C87.6684 88.084 87.3138 88.0373 86.9591 87.944C86.6138 87.8413 86.3011 87.6593 86.0211 87.398C85.7411 87.1367 85.5124 86.7773 85.3351 86.32C85.1671 85.8627 85.0831 85.2747 85.0831 84.556C85.0831 83.8747 85.1718 83.3053 85.3491 82.848C85.5264 82.3813 85.7551 82.0127 86.0351 81.742C86.3151 81.462 86.6278 81.266 86.9731 81.154C87.3184 81.0327 87.6544 80.972 87.9811 80.972C88.3638 80.972 88.7231 81.042 89.0591 81.182C89.3951 81.3127 89.6891 81.5087 89.9411 81.77C90.1931 82.0313 90.3891 82.3533 90.5291 82.736C90.6784 83.1093 90.7531 83.5387 90.7531 84.024V84.92H86.2871ZM87.9251 82.064C87.4491 82.064 87.0664 82.2273 86.7771 82.554C86.4878 82.8807 86.3244 83.3473 86.2871 83.954H89.5491C89.5211 83.3287 89.3624 82.8573 89.0731 82.54C88.7838 82.2227 88.4011 82.064 87.9251 82.064ZM94.6233 82.064V88H93.4613V82.064H91.2913V81.07H96.8073V82.064H94.6233ZM100.51 81C101.014 81 101.462 81.1027 101.854 81.308C102.246 81.504 102.563 81.7887 102.806 82.162C102.965 82.414 103.081 82.722 103.156 83.086C103.24 83.4407 103.282 83.842 103.282 84.29C103.282 84.8873 103.249 85.3913 103.184 85.802C103.119 86.2033 103.007 86.5393 102.848 86.81C102.605 87.2207 102.265 87.538 101.826 87.762C101.397 87.9767 100.907 88.084 100.356 88.084C99.8521 88.084 99.4041 88 99.0121 87.832C98.6201 87.6547 98.3028 87.3887 98.0601 87.034C97.8735 86.7447 97.7381 86.3993 97.6541 85.998C97.5795 85.5967 97.5421 85.116 97.5421 84.556C97.5421 84.164 97.5655 83.8047 97.6121 83.478C97.6681 83.142 97.7615 82.8387 97.8921 82.568C98.1255 82.064 98.4661 81.6767 98.9141 81.406C99.3715 81.1353 99.9035 81 100.51 81ZM100.468 82.036C100.123 82.036 99.8148 82.1247 99.5441 82.302C99.2828 82.47 99.0821 82.708 98.9421 83.016C98.8395 83.2307 98.7741 83.4687 98.7461 83.73C98.7181 83.982 98.6995 84.262 98.6901 84.57C98.6901 84.878 98.6995 85.158 98.7181 85.41C98.7461 85.6527 98.8068 85.8767 98.9001 86.082C99.0308 86.3807 99.2221 86.614 99.4741 86.782C99.7261 86.95 100.025 87.034 100.37 87.034C100.743 87.034 101.075 86.936 101.364 86.74C101.663 86.544 101.877 86.2313 102.008 85.802C102.055 85.634 102.083 85.4427 102.092 85.228C102.111 85.004 102.12 84.7053 102.12 84.332C102.12 84.0613 102.106 83.8233 102.078 83.618C102.059 83.4033 102.013 83.212 101.938 83.044C101.807 82.6987 101.611 82.4467 101.35 82.288C101.089 82.12 100.795 82.036 100.468 82.036ZM110.348 85.956C110.348 86.2547 110.287 86.53 110.166 86.782C110.054 87.0247 109.895 87.2393 109.69 87.426C109.494 87.6033 109.26 87.7433 108.99 87.846C108.719 87.9487 108.434 88 108.136 88H104.832V81.056H107.828C108.22 81.056 108.56 81.1073 108.85 81.21C109.148 81.3033 109.396 81.4387 109.592 81.616C109.788 81.784 109.932 81.9847 110.026 82.218C110.128 82.4513 110.18 82.7033 110.18 82.974C110.18 83.2447 110.105 83.5107 109.956 83.772C109.816 84.0333 109.568 84.2433 109.214 84.402C109.624 84.5327 109.914 84.7427 110.082 85.032C110.259 85.3213 110.348 85.6293 110.348 85.956ZM105.994 84.906V86.936H107.87C108.318 86.936 108.649 86.838 108.864 86.642C109.088 86.446 109.2 86.2127 109.2 85.942C109.2 85.6713 109.088 85.4333 108.864 85.228C108.649 85.0133 108.318 84.906 107.87 84.906H105.994ZM105.994 82.064V83.996H107.702C108.187 83.996 108.528 83.9027 108.724 83.716C108.92 83.52 109.018 83.2867 109.018 83.016C109.018 82.7453 108.91 82.5213 108.696 82.344C108.481 82.1573 108.15 82.064 107.702 82.064H105.994ZM111.726 88V86.446H113.168V88H111.726Z" fill="#7C878E"/>
<path fill-rule="evenodd" clip-rule="evenodd" d="M12 22.5C12 16.701 16.701 12 22.5 12C28.299 12 33 16.701 33 22.5C33 28.299 28.299 33 22.5 33C16.701 33 12 28.299 12 22.5ZM22.5 14.1C17.8608 14.1 14.1 17.8608 14.1 22.5C14.1 27.1392 17.8608 30.9 22.5 30.9C27.1392 30.9 30.9 27.1392 30.9 22.5C30.9 17.8608 27.1392 14.1 22.5 14.1Z" fill="#87B9D7"/>
<path d="M23.9 20.85L22.4 26.05C22.3 26.35 22.3 26.55 22.3 26.65C22.3 26.75 22.3 26.75 22.4 26.75C22.5 26.75 22.5 26.85 22.5 26.85C22.6 26.85 22.7 26.85 22.7 26.75C22.9001 26.55 23.2 26.25 23.5 25.75L23.7 25.85C23 27.15 22.2 27.75 21.4 27.75C21.1 27.75 20.8001 27.65 20.7 27.45C20.5 27.25 20.4 27.05 20.4 26.75C20.4 26.55 20.4 26.35 20.5 26.05L21.5 22.55C21.6 22.35 21.7 22.15 21.7 21.95C21.7 21.85 21.7 21.75 21.6 21.65C21.5 21.65 21.3 21.55 21.2 21.55C21.1 21.55 21 21.55 20.9 21.55L21 21.25L23.5 20.85H23.9ZM23.5 17.25C23.8 17.25 24.1 17.35 24.3 17.55C24.5 17.75 24.6 18.05 24.6 18.35C24.6 18.65 24.5 18.85 24.3 19.15C24.1 19.35 23.8 19.45 23.5 19.45C23.2 19.45 23 19.35 22.8 19.15C22.6 18.95 22.5 18.65 22.5 18.35C22.5 18.05 22.6 17.85 22.8 17.55C22.9001 17.35 23.2 17.25 23.5 17.25Z" fill="#87B9D7"/>
<path fill-rule="evenodd" clip-rule="evenodd" d="M23.1725 17.5687C23.081 17.6053 23.0455 17.6459 23.0347 17.6674C23.0299 17.6772 23.0244 17.6866 23.0184 17.6956C22.8271 17.9825 22.7625 18.1289 22.7625 18.35C22.7625 18.5979 22.846 18.8247 22.9856 18.9644C23.0701 19.0489 23.1442 19.1018 23.2191 19.1351C23.2929 19.1679 23.3807 19.1875 23.5 19.1875C23.7379 19.1875 23.9565 19.1106 24.0972 18.9809C24.2764 18.7093 24.3375 18.565 24.3375 18.35C24.3375 18.1021 24.254 17.8752 24.1144 17.7356M22.9775 17.0813C23.1392 17.0166 23.3234 16.9875 23.5 16.9875C23.8521 16.9875 24.2252 17.104 24.4856 17.3644C24.746 17.6247 24.8625 17.9979 24.8625 18.35C24.8625 18.7289 24.7272 18.9825 24.5184 19.2956C24.5088 19.31 24.4978 19.3234 24.4856 19.3356C24.2252 19.596 23.8521 19.7125 23.5 19.7125C23.3194 19.7125 23.1571 19.6821 23.0059 19.6149C22.8558 19.5482 22.7299 19.4511 22.6144 19.3356M22.9775 17.0813C22.8239 17.1427 22.6647 17.2473 22.5737 17.4162L22.9775 17.0813ZM23.4586 20.5908C23.4723 20.5886 23.4861 20.5875 23.5 20.5875H23.9C23.9824 20.5875 24.0601 20.6263 24.1097 20.6922C24.1593 20.7581 24.175 20.8435 24.1522 20.9228L22.6493 26.1332C22.5958 26.2934 22.5752 26.4185 22.5673 26.5113C22.7594 26.3179 23.0165 26.0456 23.2749 25.6149C23.3455 25.4973 23.4948 25.4538 23.6175 25.5152L23.8175 25.6153C23.881 25.647 23.9289 25.7031 23.9503 25.7708C23.9717 25.8385 23.9648 25.912 23.9312 25.9745C23.2155 27.3034 22.3469 28.0125 21.4 28.0125C21.2234 28.0125 21.0393 27.9834 20.8776 27.9187C20.7316 27.8603 20.5805 27.7629 20.4877 27.6085C20.3839 27.5004 20.2966 27.3825 20.2351 27.2441C20.1679 27.0928 20.1375 26.9306 20.1375 26.75V26.7488C20.1375 26.5426 20.1375 26.31 20.2491 25.9726L21.2476 22.4779C21.252 22.4622 21.2579 22.4471 21.2652 22.4325C21.3729 22.2173 21.4375 22.076 21.4375 21.95C21.4375 21.919 21.4371 21.8998 21.4361 21.8865C21.3959 21.8753 21.3542 21.8614 21.3201 21.85L21.3169 21.849C21.2777 21.8359 21.2475 21.8259 21.2215 21.8188C21.205 21.8143 21.1967 21.8129 21.1945 21.8124H20.9C20.8156 21.8124 20.7364 21.7719 20.6871 21.7034C20.6377 21.635 20.6243 21.547 20.651 21.467L20.7509 21.167C20.7819 21.0741 20.8619 21.0062 20.9585 20.9908L23.4586 20.5908ZM22.2375 26.8505L22.2375 26.852L22.2375 26.854L22.2376 26.8576L22.238 26.8644C22.2383 26.8687 22.2387 26.873 22.2395 26.8775C22.2408 26.8853 22.2439 26.8997 22.2527 26.9173C22.262 26.9359 22.28 26.9625 22.3121 26.9839C22.3458 27.0065 22.379 27.0125 22.4 27.0125C22.3985 27.0125 22.3968 27.0125 22.395 27.0125C22.3754 27.0125 22.3426 27.0126 22.3132 27.0093C22.3071 27.0086 22.2988 27.0076 22.2887 27.0058C22.2557 26.961 22.2376 26.9069 22.2375 26.8505ZM22.4072 27.0956C22.3727 27.0825 22.341 27.0622 22.3144 27.0356C22.305 27.0263 22.2965 27.0163 22.2887 27.0058C22.2493 26.9988 22.1838 26.98 22.127 26.9232C22.0556 26.8519 22.044 26.7669 22.0406 26.7368C22.0374 26.7075 22.0374 26.6746 22.0375 26.655C22.0375 26.6532 22.0375 26.6516 22.0375 26.65C22.0375 26.5367 22.0384 26.307 22.1493 25.9722L22.1478 25.9773L22.4 26.05L22.151 25.967C22.1504 25.9687 22.1499 25.9705 22.1493 25.9722L23.551 21.1125H23.9V20.85L23.6477 20.7773L23.551 21.1125H23.5209L23.5415 21.1092L23.5 20.85V21.1125H23.5209L21.6938 21.4048C21.6659 21.3942 21.6362 21.3882 21.6058 21.3876C21.6043 21.3873 21.596 21.3859 21.5785 21.3811C21.5525 21.374 21.5222 21.364 21.483 21.351L21.4798 21.3499C21.4446 21.3381 21.4012 21.3237 21.3597 21.3123C21.3205 21.3016 21.2614 21.2874 21.2 21.2874H21.1133L21 21.25L21.006 21.2874H20.9006L20.9 21.5499L21.149 21.6329L21.1987 21.484L21.6938 21.4048C21.7279 21.4179 21.7593 21.438 21.7857 21.4644C21.9628 21.6416 21.9626 21.8365 21.9625 21.9423C21.9625 21.9449 21.9625 21.9475 21.9625 21.95C21.9625 22.2132 21.8377 22.4621 21.7459 22.6452C21.7458 22.6453 21.746 22.645 21.7459 22.6452L21.7524 22.6221L21.5 22.55L21.7347 22.6674C21.7383 22.6603 21.7422 22.6525 21.7459 22.6452L20.7492 26.1331C20.6629 26.3921 20.6625 26.5576 20.6625 26.75C20.6625 26.8693 20.6821 26.9571 20.7149 27.0309C20.7482 27.1058 20.8011 27.1799 20.8856 27.2644C20.9055 27.2843 20.9221 27.3073 20.9347 27.3326C20.9455 27.3541 20.981 27.3947 21.0725 27.4313C21.1608 27.4666 21.2767 27.4875 21.4 27.4875C21.7218 27.4875 22.0625 27.3684 22.4072 27.0956ZM22.6776 26.85C22.6184 26.9109 22.5591 26.967 22.5 27.0185C22.469 27.0454 22.4381 27.0711 22.4072 27.0956C22.4366 27.1067 22.468 27.1125 22.5 27.1125C22.5026 27.1125 22.5056 27.1125 22.509 27.1126C22.5499 27.1128 22.6403 27.1133 22.7205 27.0865C22.7714 27.0696 22.8378 27.0361 22.89 26.969C22.9116 26.9412 22.9275 26.9119 22.9388 26.8823C23.1425 26.6773 23.4345 26.3694 23.7251 25.885L23.6924 25.8654L23.7 25.85L23.4689 25.7256C23.4681 25.727 23.4674 25.7284 23.4666 25.7299C23.2384 26.153 23.005 26.4895 22.7711 26.75H22.7482C22.7425 26.7297 22.7343 26.7067 22.7223 26.6827C22.7005 26.6391 22.6637 26.5874 22.6035 26.5473C22.5914 26.5392 22.5789 26.5319 22.5662 26.5256" fill="#87B9D7"/>
</svg>
